<svg width="142" height="54" viewBox="0 0 142 54" fill="none" xmlns="http://www.w3.org/2000/svg">
<g filter="url(#filter0_dddddddd_688_3)">
<path d="M13.888 0.711998C16.064 0.711998 18.2613 0.733331 20.48 0.775997C22.7413 0.775997 24.96 0.818665 27.136 0.903999C29.3547 0.946665 31.4027 1.07467 33.28 1.288L32.896 7.176H16.64C15.36 7.176 14.4 7.47467 13.76 8.072C13.12 8.66933 12.8 9.608 12.8 10.888V45H4.8V9.288C4.8 6.6 5.632 4.50933 7.296 3.016C8.96 1.48 11.1573 0.711998 13.888 0.711998ZM5.888 19.656H30.464V25.544H5.888V19.656Z" fill="#5E65FF"/>
<path d="M78.837 0.839996L63.925 30.536H56.501L41.525 0.839996H49.909L58.101 18.12C58.485 18.9307 58.805 19.8053 59.061 20.744C59.3597 21.6827 59.6583 22.5787 59.957 23.432H60.469C60.725 22.5787 61.0023 21.6827 61.301 20.744C61.5997 19.8053 61.9197 18.9307 62.261 18.12L70.453 0.839996H78.837ZM64.181 25.48V45H56.181V25.48H64.181Z" fill="#FFF000"/>
<path d="M106.853 0.263996C110.181 0.263996 112.997 0.647996 115.301 1.416C117.648 2.14133 119.525 3.37866 120.933 5.128C122.384 6.83467 123.429 9.16 124.069 12.104C124.709 15.0053 125.029 18.6107 125.029 22.92C125.029 27.2293 124.709 30.856 124.069 33.8C123.429 36.7013 122.384 39.0267 120.933 40.776C119.525 42.4827 117.648 43.72 115.301 44.488C112.997 45.2133 110.181 45.576 106.853 45.576C103.653 45.576 100.688 45.512 97.957 45.384C95.2263 45.2987 92.645 45.1707 90.213 45L93.541 38.856C95.2477 38.9413 97.2103 39.0267 99.429 39.112C101.648 39.1547 104.122 39.176 106.853 39.176C109.328 39.176 111.269 38.7067 112.677 37.768C114.128 36.7867 115.152 35.1227 115.749 32.776C116.346 30.3867 116.645 27.1013 116.645 22.92C116.645 18.7387 116.346 15.4747 115.749 13.128C115.152 10.7387 114.128 9.05333 112.677 8.072C111.269 7.09067 109.328 6.6 106.853 6.6C104.208 6.6 101.84 6.62133 99.749 6.664C97.701 6.70666 95.6957 6.728 93.733 6.728L90.213 0.839996C92.645 0.669332 95.205 0.541332 97.893 0.455997C100.624 0.327997 103.61 0.263996 106.853 0.263996ZM98.213 0.839996V45H90.213V0.839996H98.213Z" fill="#DC89FF"/>
<path d="M134.552 36.232C135.619 36.232 136.344 36.4453 136.728 36.872C137.155 37.256 137.368 37.96 137.368 38.984V42.184C137.368 43.2507 137.155 43.9973 136.728 44.424C136.344 44.808 135.619 45 134.552 45H132.44C131.416 45 130.691 44.808 130.264 44.424C129.838 43.9973 129.624 43.2507 129.624 42.184V38.984C129.624 37.96 129.838 37.256 130.264 36.872C130.691 36.4453 131.416 36.232 132.44 36.232H134.552Z" fill="#05FF00"/>
</g>
<defs>
<filter id="filter0_dddddddd_688_3" x="0.799988" y="0.264008" width="140.568" height="53.312" filterUnits="userSpaceOnUse" color-interpolation-filters="sRGB">
<feFlood flood-opacity="0" result="BackgroundImageFix"/>
<feColorMatrix in="SourceAlpha" type="matrix" values="0 0 0 0 0 0 0 0 0 0 0 0 0 0 0 0 0 0 127 0" result="hardAlpha"/>
<feOffset dy="4"/>
<feGaussianBlur stdDeviation="2"/>
<feComposite in2="hardAlpha" operator="out"/>
<feColorMatrix type="matrix" values="0 0 0 0 0 0 0 0 0 0 0 0 0 0 0 0 0 0 0.25 0"/>
<feBlend mode="normal" in2="BackgroundImageFix" result="effect1_dropShadow_688_3"/>
<feColorMatrix in="SourceAlpha" type="matrix" values="0 0 0 0 0 0 0 0 0 0 0 0 0 0 0 0 0 0 127 0" result="hardAlpha"/>
<feOffset dy="4"/>
<feGaussianBlur stdDeviation="2"/>
<feComposite in2="hardAlpha" operator="out"/>
<feColorMatrix type="matrix" values="0 0 0 0 0 0 0 0 0 0 0 0 0 0 0 0 0 0 0.25 0"/>
<feBlend mode="normal" in2="effect1_dropShadow_688_3" result="effect2_dropShadow_688_3"/>
<feColorMatrix in="SourceAlpha" type="matrix" values="0 0 0 0 0 0 0 0 0 0 0 0 0 0 0 0 0 0 127 0" result="hardAlpha"/>
<feOffset dy="4"/>
<feGaussianBlur stdDeviation="2"/>
<feComposite in2="hardAlpha" operator="out"/>
<feColorMatrix type="matrix" values="0 0 0 0 0 0 0 0 0 0 0 0 0 0 0 0 0 0 0.25 0"/>
<feBlend mode="normal" in2="effect2_dropShadow_688_3" result="effect3_dropShadow_688_3"/>
<feColorMatrix in="SourceAlpha" type="matrix" values="0 0 0 0 0 0 0 0 0 0 0 0 0 0 0 0 0 0 127 0" result="hardAlpha"/>
<feOffset dy="4"/>
<feGaussianBlur stdDeviation="2"/>
<feComposite in2="hardAlpha" operator="out"/>
<feColorMatrix type="matrix" values="0 0 0 0 0 0 0 0 0 0 0 0 0 0 0 0 0 0 0.25 0"/>
<feBlend mode="normal" in2="effect3_dropShadow_688_3" result="effect4_dropShadow_688_3"/>
<feColorMatrix in="SourceAlpha" type="matrix" values="0 0 0 0 0 0 0 0 0 0 0 0 0 0 0 0 0 0 127 0" result="hardAlpha"/>
<feOffset dy="4"/>
<feGaussianBlur stdDeviation="2"/>
<feComposite in2="hardAlpha" operator="out"/>
<feColorMatrix type="matrix" values="0 0 0 0 0 0 0 0 0 0 0 0 0 0 0 0 0 0 0.25 0"/>
<feBlend mode="normal" in2="effect4_dropShadow_688_3" result="effect5_dropShadow_688_3"/>
<feColorMatrix in="SourceAlpha" type="matrix" values="0 0 0 0 0 0 0 0 0 0 0 0 0 0 0 0 0 0 127 0" result="hardAlpha"/>
<feOffset dy="4"/>
<feGaussianBlur stdDeviation="2"/>
<feComposite in2="hardAlpha" operator="out"/>
<feColorMatrix type="matrix" values="0 0 0 0 0 0 0 0 0 0 0 0 0 0 0 0 0 0 0.25 0"/>
<feBlend mode="normal" in2="effect5_dropShadow_688_3" result="effect6_dropShadow_688_3"/>
<feColorMatrix in="SourceAlpha" type="matrix" values="0 0 0 0 0 0 0 0 0 0 0 0 0 0 0 0 0 0 127 0" result="hardAlpha"/>
<feOffset dy="4"/>
<feGaussianBlur stdDeviation="2"/>
<feComposite in2="hardAlpha" operator="out"/>
<feColorMatrix type="matrix" values="0 0 0 0 0 0 0 0 0 0 0 0 0 0 0 0 0 0 0.25 0"/>
<feBlend mode="normal" in2="effect6_dropShadow_688_3" result="effect7_dropShadow_688_3"/>
<feColorMatrix in="SourceAlpha" type="matrix" values="0 0 0 0 0 0 0 0 0 0 0 0 0 0 0 0 0 0 127 0" result="hardAlpha"/>
<feOffset dy="4"/>
<feGaussianBlur stdDeviation="2"/>
<feComposite in2="hardAlpha" operator="out"/>
<feColorMatrix type="matrix" values="0 0 0 0 0 0 0 0 0 0 0 0 0 0 0 0 0 0 0.25 0"/>
<feBlend mode="normal" in2="effect7_dropShadow_688_3" result="effect8_dropShadow_688_3"/>
<feBlend mode="normal" in="SourceGraphic" in2="effect8_dropShadow_688_3" result="shape"/>
</filter>
</defs>
</svg>
