<svg width="338" height="200" viewBox="0 0 338 200" fill="none" xmlns="http://www.w3.org/2000/svg">
<g filter="url(#filter0_f_1311_45)">
<path d="M54.1 25.3L54.5671 25.4784L54.8262 24.8H54.1V25.3ZM36.3 71.9L36.7643 72.0857L36.7671 72.0784L36.3 71.9ZM35.1 73.5L35.3907 73.907L35.4 73.9L35.1 73.5ZM23.8 73.5L23.5 73.9L23.517 73.9127L23.535 73.924L23.8 73.5ZM22.6 71.9L22.1329 72.0784L22.1358 72.0857L22.6 71.9ZM4.8 25.3V24.8H4.07378L4.33292 25.4784L4.8 25.3ZM13.9 25.3L14.3716 25.134L14.2541 24.8H13.9V25.3ZM25.9 59.4L25.4282 59.566L25.4328 59.578L25.9 59.4ZM27.4 63.7L27.8765 63.5484L27.8765 63.5484L27.4 63.7ZM28.8 67.9L28.3281 68.0652L28.4453 68.4H28.8V67.9ZM30.1 67.9V68.4H30.4446L30.5672 68.078L30.1 67.9ZM31.6 63.7L31.1299 63.5291L31.1257 63.5419L31.6 63.7ZM33.1 59.4L32.6283 59.234L32.6257 59.2419L33.1 59.4ZM45.1 25.3V24.8H44.7459L44.6284 25.134L45.1 25.3ZM53.6329 25.1216L35.8329 71.7216L36.7671 72.0784L54.5671 25.4784L53.6329 25.1216ZM35.8358 71.7143C35.6004 72.3026 35.2543 72.7593 34.8 73.1L35.4 73.9C36.0124 73.4407 36.4662 72.8307 36.7642 72.0857L35.8358 71.7143ZM34.8094 73.0931C34.4485 73.3509 33.9582 73.5 33.3 73.5V74.5C34.1084 74.5 34.8182 74.3157 35.3906 73.9069L34.8094 73.0931ZM33.3 73.5H25.6V74.5H33.3V73.5ZM25.6 73.5C25.0212 73.5 24.514 73.3566 24.065 73.076L23.535 73.924C24.1526 74.31 24.8455 74.5 25.6 74.5V73.5ZM24.1 73.1C23.6457 72.7593 23.2996 72.3026 23.0642 71.7143L22.1358 72.0857C22.4338 72.8307 22.8877 73.4407 23.5 73.9L24.1 73.1ZM23.0671 71.7216L5.26709 25.1216L4.33292 25.4784L22.1329 72.0784L23.0671 71.7216ZM4.8 25.8H13.9V24.8H4.8V25.8ZM13.4284 25.466L25.4284 59.566L26.3716 59.234L14.3716 25.134L13.4284 25.466ZM25.4328 59.578C25.9627 60.9691 26.4596 62.3936 26.9235 63.8516L27.8765 63.5484C27.407 62.0731 26.904 60.6309 26.3672 59.222L25.4328 59.578ZM26.9235 63.8516C27.3915 65.3224 27.8597 66.727 28.3281 68.0652L29.2719 67.7348C28.807 66.4064 28.3418 65.0109 27.8765 63.5484L26.9235 63.8516ZM28.8 68.4H30.1V67.4H28.8V68.4ZM30.5672 68.078C31.103 66.6715 31.6054 65.2649 32.0743 63.8581L31.1257 63.5419C30.6613 64.9351 30.1636 66.3285 29.6328 67.722L30.5672 68.078ZM32.0699 63.8709C32.6047 62.4002 33.1062 60.9626 33.5743 59.5581L32.6257 59.2419C32.1605 60.6374 31.662 62.0665 31.1301 63.5291L32.0699 63.8709ZM33.5717 59.566L45.5717 25.466L44.6284 25.134L32.6284 59.234L33.5717 59.566ZM45.1 25.8H54.1V24.8H45.1V25.8ZM97.1414 28.1L96.8252 28.4873L96.8291 28.4904L97.1414 28.1ZM102.141 40H101.641L101.641 40.0077L102.141 40ZM99.4414 50.2L99.8361 50.507L99.8401 50.5017L99.4414 50.2ZM62.1414 53.8H61.6414V54.3H62.1414V53.8ZM62.1414 47.2V46.7H61.6414V47.2H62.1414ZM92.6414 45L93.0967 45.2069L93.0999 45.1994L92.6414 45ZM93.6414 40H94.1415L94.1413 39.9894L93.6414 40ZM90.8414 33.3L90.5438 33.7018L90.5438 33.7018L90.8414 33.3ZM73.2414 32.9L73.465 33.3472L73.4707 33.3443L73.2414 32.9ZM68.9414 38.3L68.467 38.1419L68.4646 38.1494L68.9414 38.3ZM69.2414 60.9L68.7717 61.0718L68.7756 61.0818L69.2414 60.9ZM74.2414 66.5L74.0396 66.9575L74.0396 66.9575L74.2414 66.5ZM91.7414 67.7L91.774 68.199L91.7838 68.1982L91.7414 67.7ZM100.141 66.8L100.635 66.722L100.559 66.239L100.074 66.3045L100.141 66.8ZM101.041 72.5L101.224 72.9656L101.598 72.8191L101.535 72.422L101.041 72.5ZM95.3414 74L95.2545 73.5076L95.252 73.5081L95.3414 74ZM88.4414 74.9L88.3999 74.4017L88.3987 74.4018L88.4414 74.9ZM68.6414 72.7L68.4143 73.1455L68.4213 73.149L68.6414 72.7ZM61.1414 64.5L60.6776 64.6871L60.6818 64.697L61.1414 64.5ZM61.1414 34.4L60.6818 34.203L60.6801 34.2071L61.1414 34.4ZM68.4414 26.5L68.6539 26.9526L68.6578 26.9508L68.4414 26.5ZM81.2414 24.6C88.5364 24.6 93.6932 25.9306 96.8252 28.4873L97.4576 27.7127C94.0563 24.9361 88.6131 23.6 81.2414 23.6V24.6ZM96.8291 28.4904C100.016 31.0402 101.641 34.8461 101.641 40H102.641C102.641 34.6205 100.933 30.4931 97.4538 27.7096L96.8291 28.4904ZM101.641 40.0077C101.707 44.2733 100.82 47.5502 99.0427 49.8983L99.8401 50.5017C101.796 47.9165 102.709 44.3933 102.641 39.9923L101.641 40.0077ZM99.0467 49.893C97.3046 52.1329 94.5098 53.3 90.5414 53.3V54.3C94.7063 54.3 97.8449 53.0671 99.8361 50.507L99.0467 49.893ZM90.5414 53.3H62.1414V54.3H90.5414V53.3ZM62.6414 53.8V47.2H61.6414V53.8H62.6414ZM62.1414 47.7H88.3414V46.7H62.1414V47.7ZM88.3414 47.7C90.6529 47.7 92.3188 46.918 93.0966 45.2069L92.1862 44.7931C91.6307 46.0153 90.4299 46.7 88.3414 46.7V47.7ZM93.0999 45.1994C93.796 43.5984 94.1414 41.8633 94.1414 40H93.1414C93.1414 41.7367 92.8201 43.3349 92.1829 44.8006L93.0999 45.1994ZM94.1413 39.9894C94.0727 36.7668 93.1078 34.3566 91.139 32.8982L90.5438 33.7018C92.175 34.9101 93.0768 36.9666 93.1415 40.0106L94.1413 39.9894ZM91.139 32.8982C89.2033 31.4644 85.9969 30.8 81.6414 30.8V31.8C85.9526 31.8 88.8795 32.469 90.5438 33.7018L91.139 32.8982ZM81.6414 30.8C78.0661 30.8 75.177 31.3383 73.0121 32.4557L73.4707 33.3443C75.4392 32.3283 78.15 31.8 81.6414 31.8V30.8ZM73.0178 32.4528C70.8735 33.5249 69.3656 35.4463 68.4671 38.1419L69.4157 38.4581C70.2505 35.9537 71.6093 34.2751 73.465 33.3472L73.0178 32.4528ZM68.4646 38.1494C67.642 40.7545 67.2414 44.3805 67.2414 49H68.2414C68.2414 44.4195 68.6408 40.9122 69.4182 38.4506L68.4646 38.1494ZM67.2414 49C67.2414 54.22 67.7417 58.2561 68.7718 61.0718L69.711 60.7282C68.7411 58.0772 68.2414 54.18 68.2414 49H67.2414ZM68.7756 61.0818C69.8808 63.9139 71.6299 65.8944 74.0396 66.9575L74.4432 66.0425C72.3196 65.1056 70.7353 63.3528 69.7072 60.7182L68.7756 61.0818ZM74.0396 66.9575C76.3937 67.996 79.4705 68.5 83.2414 68.5V67.5C79.5456 67.5 76.6224 67.004 74.4432 66.0425L74.0396 66.9575ZM83.2414 68.5C85.854 68.5 88.6983 68.3995 91.7739 68.1989L91.7089 67.2011C88.6511 67.4005 85.8288 67.5 83.2414 67.5V68.5ZM91.7838 68.1982C94.9233 67.931 97.7317 67.6302 100.208 67.2955L100.074 66.3045C97.6177 66.6365 94.8262 66.9357 91.699 67.2018L91.7838 68.1982ZM99.6475 66.878L100.548 72.578L101.535 72.422L100.635 66.722L99.6475 66.878ZM100.859 72.0344C99.3661 72.6186 97.5004 73.1113 95.2545 73.5076L95.4283 74.4924C97.7158 74.0887 99.65 73.5814 101.224 72.9656L100.859 72.0344ZM95.252 73.5081C93.069 73.905 90.785 74.203 88.3999 74.4017L88.4829 75.3983C90.8978 75.197 93.2138 74.895 95.4309 74.4919L95.252 73.5081ZM88.3987 74.4018C86.0762 74.6009 83.9908 74.7 82.1414 74.7V75.7C84.0254 75.7 86.14 75.5991 88.4841 75.3982L88.3987 74.4018ZM82.1414 74.7C76.5841 74.7 72.1681 73.8719 68.8615 72.251L68.4213 73.149C71.9147 74.8614 76.4987 75.7 82.1414 75.7V74.7ZM68.8685 72.2545C65.5797 70.5779 63.1581 67.9364 61.601 64.303L60.6818 64.697C62.3247 68.5303 64.9031 71.3554 68.4143 73.1455L68.8685 72.2545ZM61.6051 64.3129C60.1048 60.5948 59.3414 55.6655 59.3414 49.5H58.3414C58.3414 55.7345 59.1114 60.8052 60.6777 64.6871L61.6051 64.3129ZM59.3414 49.5C59.3414 43.1306 60.1058 38.1725 61.6027 34.5929L60.6801 34.2071C59.1104 37.9608 58.3414 43.0694 58.3414 49.5H59.3414ZM61.601 34.597C63.1592 30.9611 65.5122 28.4273 68.6539 26.9526L68.229 26.0474C64.8373 27.6394 62.3236 30.3722 60.6818 34.203L61.601 34.597ZM68.6578 26.9508C71.9019 25.3936 76.0878 24.6 81.2414 24.6V23.6C75.995 23.6 71.6476 24.4064 68.225 26.0492L68.6578 26.9508ZM119.552 25.3L120.049 25.2413L119.997 24.8H119.552V25.3ZM120.652 34.6L120.156 34.6587L120.167 34.7522L120.211 34.8353L120.652 34.6ZM121.452 36.1H121.952V35.975L121.894 35.8647L121.452 36.1ZM121.452 74V74.5H121.952V74H121.452ZM112.952 74H112.452V74.5H112.952V74ZM112.952 25.3V24.8H112.452V25.3H112.952ZM143.452 24.1L143.948 24.162L144.019 23.6H143.452V24.1ZM142.452 32.1V32.6H142.894L142.948 32.162L142.452 32.1ZM131.052 33.9L131.236 34.3651L131.245 34.3612L131.052 33.9ZM120.552 38.8L120.057 38.8655L120.15 39.5705L120.782 39.2443L120.552 38.8ZM119.852 33.5L119.537 33.1124L119.32 33.2887L119.357 33.5655L119.852 33.5ZM130.652 26.6L130.445 26.1448L130.442 26.1463L130.652 26.6ZM119.056 25.3587L120.156 34.6587L121.149 34.5413L120.049 25.2413L119.056 25.3587ZM120.211 34.8353L121.011 36.3353L121.894 35.8647L121.094 34.3647L120.211 34.8353ZM120.952 36.1V74H121.952V36.1H120.952ZM121.452 73.5H112.952V74.5H121.452V73.5ZM113.452 74V25.3H112.452V74H113.452ZM112.952 25.8H119.552V24.8H112.952V25.8ZM142.956 24.038L141.956 32.038L142.948 32.162L143.948 24.162L142.956 24.038ZM142.452 31.6H139.652V32.6H142.452V31.6ZM139.652 31.6C136.714 31.6 133.782 32.2153 130.859 33.4388L131.245 34.3612C134.056 33.1846 136.857 32.6 139.652 32.6V31.6ZM130.869 33.435C127.981 34.5767 124.465 36.2181 120.323 38.3557L120.782 39.2443C124.907 37.1152 128.391 35.4899 131.236 34.365L130.869 33.435ZM121.048 38.7345L120.348 33.4345L119.357 33.5655L120.057 38.8655L121.048 38.7345ZM120.168 33.8876C123.741 30.9763 127.306 28.7002 130.862 27.0537L130.442 26.1463C126.799 27.8331 123.164 30.157 119.537 33.1124L120.168 33.8876ZM130.859 27.0552C134.473 25.4127 137.936 24.6 141.252 24.6V23.6C137.769 23.6 134.165 24.454 130.445 26.1448L130.859 27.0552ZM141.252 24.6H143.452V23.6H141.252V24.6ZM159.889 25.3H160.389V24.8H159.889V25.3ZM159.889 74V74.5H160.389V74H159.889ZM151.489 74H150.989V74.5H151.489V74ZM151.489 25.3V24.8H150.989V25.3H151.489ZM159.389 25.3V74H160.389V25.3H159.389ZM159.889 73.5H151.489V74.5H159.889V73.5ZM151.989 74V25.3H150.989V74H151.989ZM151.489 25.8H159.889V24.8H151.489V25.8ZM157.689 5.1C158.479 5.1 158.979 5.29706 159.286 5.60355C159.592 5.91004 159.789 6.4104 159.789 7.2H160.789C160.789 6.25626 160.553 5.45662 159.993 4.89644C159.432 4.33627 158.633 4.1 157.689 4.1V5.1ZM159.789 7.2V12.9H160.789V7.2H159.789ZM159.789 12.9C159.789 13.6896 159.592 14.19 159.286 14.4964C158.979 14.8029 158.479 15 157.689 15V16C158.633 16 159.432 15.7637 159.993 15.2036C160.553 14.6434 160.789 13.8437 160.789 12.9H159.789ZM157.689 15H153.689V16H157.689V15ZM153.689 15C152.899 15 152.399 14.8029 152.093 14.4964C151.786 14.19 151.589 13.6896 151.589 12.9H150.589C150.589 13.8437 150.825 14.6434 151.386 15.2036C151.946 15.7637 152.745 16 153.689 16V15ZM151.589 12.9V7.2H150.589V12.9H151.589ZM151.589 7.2C151.589 6.4104 151.786 5.91005 152.093 5.60355C152.399 5.29706 152.899 5.1 153.689 5.1V4.1C152.745 4.1 151.946 4.33627 151.386 4.89644C150.825 5.45662 150.589 6.25626 150.589 7.2H151.589ZM153.689 5.1H157.689V4.1H153.689V5.1ZM197.594 4.99999L197.584 5.49999H197.594V4.99999ZM207.294 5.1L207.283 5.59989L207.283 5.59989L207.294 5.1ZM216.494 5.6L216.992 5.63666L217.028 5.14655L216.539 5.10205L216.494 5.6ZM215.994 12.4V12.9H216.458L216.492 12.4367L215.994 12.4ZM184.994 14L185.336 14.3648L185.342 14.3593L185.347 14.3536L184.994 14ZM183.394 74V74.5H183.894V74H183.394ZM174.594 74H174.094V74.5H174.594V74ZM178.194 8.19999L178.526 8.57374L178.532 8.56857L178.194 8.19999ZM176.294 35V34.5H175.794V35H176.294ZM212.194 35H212.694V34.5H212.194V35ZM212.194 42.1V42.6H212.694V42.1H212.194ZM176.294 42.1H175.794V42.6H176.294V42.1ZM187.894 5.4C191.09 5.4 194.32 5.43329 197.584 5.49989L197.604 4.5001C194.334 4.43336 191.097 4.4 187.894 4.4V5.4ZM197.594 5.49999C200.857 5.49999 204.087 5.53329 207.283 5.59989L207.304 4.60011C204.101 4.53336 200.864 4.49999 197.594 4.49999V5.49999ZM207.283 5.59989C210.473 5.66633 213.528 5.83242 216.448 6.09795L216.539 5.10205C213.593 4.83425 210.515 4.667 207.304 4.60011L207.283 5.59989ZM215.995 5.56333L215.495 12.3633L216.492 12.4367L216.992 5.63666L215.995 5.56333ZM215.994 11.9H190.094V12.9H215.994V11.9ZM190.094 11.9C187.699 11.9 185.841 12.4457 184.64 13.6464L185.347 14.3536C186.28 13.421 187.822 12.9 190.094 12.9V11.9ZM184.652 13.6352C183.438 14.7733 182.894 16.6086 182.894 19H183.894C183.894 16.7247 184.416 15.2267 185.336 14.3648L184.652 13.6352ZM182.894 19V74H183.894V19H182.894ZM183.394 73.5H174.594V74.5H183.394V73.5ZM175.094 74V17.3H174.094V74H175.094ZM175.094 17.3C175.094 13.4747 176.256 10.5912 178.526 8.5737L177.862 7.82629C175.331 10.0754 174.094 13.2587 174.094 17.3H175.094ZM178.532 8.56857C180.818 6.47275 183.92 5.4 187.894 5.4V4.4C183.734 4.4 180.37 5.52724 177.856 7.83142L178.532 8.56857ZM176.294 35.5H212.194V34.5H176.294V35.5ZM211.694 35V42.1H212.694V35H211.694ZM212.194 41.6H176.294V42.6H212.194V41.6ZM176.794 42.1V35H175.794V42.1H176.794ZM273.7 4.99999L274.145 5.2275L274.517 4.49999H273.7V4.99999ZM250.4 50.6V51.1H250.706L250.845 50.8275L250.4 50.6ZM242.5 50.6L242.055 50.8283L242.195 51.1H242.5V50.6ZM219.1 4.99999V4.49999H218.281L218.655 5.22827L219.1 4.99999ZM228.5 4.99999L228.948 4.777L228.809 4.49999H228.5V4.99999ZM243 34.1L243.452 33.8859L243.448 33.877L243 34.1ZM244.6 38L244.128 38.1652L244.132 38.1755L244.136 38.1857L244.6 38ZM246.1 41.9L245.631 42.0729L245.751 42.4H246.1V41.9ZM246.8 41.9V42.4H247.149L247.269 42.0729L246.8 41.9ZM248.3 38L247.836 37.8143L247.836 37.8143L248.3 38ZM249.9 34.2L249.452 33.9776L249.447 33.9872L249.443 33.9969L249.9 34.2ZM264.4 4.99999V4.49999H264.09L263.952 4.77762L264.4 4.99999ZM250.8 44.4H251.3V43.9H250.8V44.4ZM250.8 74V74.5H251.3V74H250.8ZM242 74H241.5V74.5H242V74ZM242 44.4V43.9H241.5V44.4H242ZM273.255 4.77249L249.955 50.3725L250.845 50.8275L274.145 5.2275L273.255 4.77249ZM250.4 50.1H242.5V51.1H250.4V50.1ZM242.945 50.3717L219.545 4.77172L218.655 5.22827L242.055 50.8283L242.945 50.3717ZM219.1 5.49999H228.5V4.49999H219.1V5.49999ZM228.052 5.22299L242.552 34.323L243.448 33.877L228.948 4.777L228.052 5.22299ZM242.548 34.314C243.141 35.5647 243.667 36.8483 244.128 38.1652L245.072 37.8348C244.599 36.485 244.059 35.1687 243.452 33.886L242.548 34.314ZM244.136 38.1857C244.668 39.515 245.166 40.8108 245.631 42.0729L246.569 41.7271C246.101 40.4559 245.599 39.1516 245.064 37.8143L244.136 38.1857ZM246.1 42.4H246.8V41.4H246.1V42.4ZM247.269 42.0729C247.734 40.8108 248.233 39.515 248.764 38.1857L247.836 37.8143C247.301 39.1516 246.799 40.4559 246.331 41.7271L247.269 42.0729ZM248.764 38.1857C249.295 36.8577 249.826 35.5968 250.357 34.4031L249.443 33.9969C248.907 35.2032 248.371 36.4757 247.836 37.8143L248.764 38.1857ZM250.348 34.4224L264.848 5.22237L263.952 4.77762L249.452 33.9776L250.348 34.4224ZM264.4 5.49999H273.7V4.49999H264.4V5.49999ZM250.3 44.4V74H251.3V44.4H250.3ZM250.8 73.5H242V74.5H250.8V73.5ZM242.5 74V44.4H241.5V74H242.5ZM242 44.9H250.8V43.9H242V44.9ZM318.734 5.89999L318.567 6.3715L318.57 6.37249L318.734 5.89999ZM327.034 11.8L326.635 12.1016L326.639 12.1076L327.034 11.8ZM331.634 22.7L331.144 22.8008L331.145 22.8077L331.634 22.7ZM331.634 56.3L331.145 56.1923L331.144 56.1992L331.634 56.3ZM327.034 67.2L326.639 66.8923L326.635 66.8984L327.034 67.2ZM318.734 73.1L318.57 72.6275L318.567 72.6285L318.734 73.1ZM293.034 74.6L293.058 74.1005L293.05 74.1003L293.034 74.6ZM281.634 74L281.191 73.7666L280.835 74.4422L281.597 74.4986L281.634 74ZM285.434 66.8L285.445 66.3001L285.136 66.2928L284.991 66.5666L285.434 66.8ZM294.734 67.1L294.714 67.5997L294.724 67.5999L294.734 67.1ZM316.734 64.7L317.003 65.121L317.011 65.116L316.734 64.7ZM322.234 56.1L321.752 55.9658L321.75 55.9712L322.234 56.1ZM322.234 23L321.75 23.1269L321.753 23.1363L322.234 23ZM316.734 14.3L316.456 14.716L316.456 14.716L316.734 14.3ZM295.034 11.8L295.024 11.3001L295.023 11.3001L295.034 11.8ZM285.434 12L284.994 12.2385L285.14 12.5064L285.444 12.4999L285.434 12ZM281.634 4.99999L281.597 4.50136L280.825 4.55852L281.194 5.23854L281.634 4.99999ZM293.034 4.4L293.05 4.89978L293.058 4.89939L293.034 4.4ZM290.434 4.99999H290.934V4.49999H290.434V4.99999ZM290.434 74V74.5H290.934V74H290.434ZM281.634 74H281.134V74.5H281.634V74ZM281.634 4.99999V4.49999H281.134V4.99999H281.634ZM306.234 4.59999C311.13 4.59999 315.236 5.19588 318.567 6.37149L318.9 5.4285C315.431 4.20411 311.204 3.59999 306.234 3.59999V4.59999ZM318.57 6.37249C321.95 7.54248 324.632 9.45291 326.635 12.1015L327.432 11.4984C325.302 8.68042 322.451 6.65751 318.897 5.4275L318.57 6.37249ZM326.639 12.1076C328.712 14.7635 330.221 18.3188 331.144 22.8008L332.123 22.5992C331.179 18.0146 329.622 14.3032 327.428 11.4924L326.639 12.1076ZM331.145 22.8077C332.135 27.294 332.634 32.8553 332.634 39.5H333.634C333.634 32.8114 333.132 27.1726 332.122 22.5923L331.145 22.8077ZM332.634 39.5C332.634 46.1447 332.135 51.706 331.145 56.1923L332.122 56.4077C333.132 51.8274 333.634 46.1886 333.634 39.5H332.634ZM331.144 56.1992C330.221 60.6812 328.712 64.2365 326.639 66.8924L327.428 67.5076C329.622 64.6968 331.179 60.9854 332.123 56.4008L331.144 56.1992ZM326.635 66.8984C324.632 69.5471 321.95 71.4575 318.57 72.6275L318.897 73.5725C322.451 72.3425 325.302 70.3196 327.432 67.5016L326.635 66.8984ZM318.567 72.6285C315.236 73.8041 311.13 74.4 306.234 74.4V75.4C311.204 75.4 315.431 74.7959 318.9 73.5715L318.567 72.6285ZM306.234 74.4C301.507 74.4 297.115 74.3001 293.058 74.1006L293.009 75.0994C297.085 75.2999 301.493 75.4 306.234 75.4V74.4ZM293.05 74.1003C289.056 73.9671 285.263 73.7675 281.671 73.5014L281.597 74.4986C285.204 74.7659 289.011 74.9662 293.017 75.0997L293.05 74.1003ZM282.076 74.2334L285.876 67.0334L284.991 66.5666L281.191 73.7666L282.076 74.2334ZM285.422 67.2999C288.219 67.3665 291.316 67.4664 294.714 67.5996L294.753 66.6004C291.351 66.467 288.249 66.3669 285.445 66.3001L285.422 67.2999ZM294.724 67.5999C298.194 67.6666 302.031 67.7 306.234 67.7V66.7C302.036 66.7 298.206 66.6667 294.743 66.6001L294.724 67.5999ZM306.234 67.7C310.691 67.7 314.296 66.8568 317.003 65.1209L316.464 64.2791C313.972 65.8766 310.577 66.7 306.234 66.7V67.7ZM317.011 65.116C319.741 63.2958 321.629 60.3076 322.717 56.2288L321.75 55.9712C320.705 59.8924 318.926 62.6375 316.456 64.284L317.011 65.116ZM322.715 56.2342C323.866 52.1046 324.434 46.5198 324.434 39.5H323.434C323.434 46.4802 322.868 51.962 321.752 55.9658L322.715 56.2342ZM324.434 39.5C324.434 32.4807 323.866 26.928 322.715 22.8637L321.753 23.1363C322.868 27.072 323.434 32.5192 323.434 39.5H324.434ZM322.717 22.8731C321.63 18.7295 319.744 15.7057 317.011 13.884L316.456 14.716C318.924 16.361 320.703 19.1372 321.75 23.1269L322.717 22.8731ZM317.011 13.884C314.302 12.0778 310.694 11.2 306.234 11.2V12.2C310.574 12.2 313.966 13.0556 316.456 14.716L317.011 13.884ZM306.234 11.2C302.098 11.2 298.361 11.2334 295.024 11.3001L295.044 12.2999C298.373 12.2333 302.103 12.2 306.234 12.2V11.2ZM295.023 11.3001C291.757 11.3668 288.556 11.4334 285.423 11.5001L285.444 12.4999C288.577 12.4332 291.777 12.3666 295.044 12.2999L295.023 11.3001ZM285.873 11.7615L282.073 4.76145L281.194 5.23854L284.994 12.2385L285.873 11.7615ZM281.671 5.49863C285.263 5.23252 289.056 5.03285 293.05 4.89972L293.017 3.90027C289.011 4.03381 285.204 4.23415 281.597 4.50136L281.671 5.49863ZM293.058 4.89939C297.115 4.69985 301.507 4.59999 306.234 4.59999V3.59999C301.493 3.59999 297.085 3.70014 293.009 3.9006L293.058 4.89939ZM289.934 4.99999V74H290.934V4.99999H289.934ZM290.434 73.5H281.634V74.5H290.434V73.5ZM282.134 74V4.99999H281.134V74H282.134ZM281.634 5.49999H290.434V4.49999H281.634V5.49999ZM99.3625 182.9L99.7161 182.546L99.7161 182.546L99.3625 182.9ZM91.5625 193.3L91.2089 193.654L91.2207 193.665L91.2332 193.676L91.5625 193.3ZM91.5625 182.9L91.2332 182.524L91.2207 182.535L91.2089 182.546L91.5625 182.9ZM96.8625 182.7C98.0285 182.7 98.6882 182.933 99.0089 183.254L99.7161 182.546C99.1035 181.934 98.0965 181.7 96.8625 181.7V182.7ZM99.0089 183.254C99.3297 183.574 99.5625 184.234 99.5625 185.4H100.563C100.563 184.166 100.329 183.159 99.7161 182.546L99.0089 183.254ZM99.5625 185.4V190.8H100.563V185.4H99.5625ZM99.5625 190.8C99.5625 191.966 99.3297 192.626 99.0089 192.946L99.7161 193.654C100.329 193.041 100.563 192.034 100.563 190.8H99.5625ZM99.0089 192.946C98.6882 193.267 98.0285 193.5 96.8625 193.5V194.5C98.0965 194.5 99.1035 194.266 99.7161 193.654L99.0089 192.946ZM96.8625 193.5H94.0625V194.5H96.8625V193.5ZM94.0625 193.5C92.9817 193.5 92.293 193.275 91.8918 192.924L91.2332 193.676C91.8987 194.259 92.8766 194.5 94.0625 194.5V193.5ZM91.9161 192.946C91.5953 192.626 91.3625 191.966 91.3625 190.8H90.3625C90.3625 192.034 90.5964 193.041 91.2089 193.654L91.9161 192.946ZM91.3625 190.8V185.4H90.3625V190.8H91.3625ZM91.3625 185.4C91.3625 184.234 91.5953 183.574 91.9161 183.254L91.2089 182.546C90.5964 183.159 90.3625 184.166 90.3625 185.4H91.3625ZM91.8918 183.276C92.293 182.925 92.9817 182.7 94.0625 182.7V181.7C92.8766 181.7 91.8987 181.941 91.2332 182.524L91.8918 183.276ZM94.0625 182.7H96.8625V181.7H94.0625V182.7ZM128.914 144.1L128.906 144.6H128.914V144.1ZM135.714 144.3L135.686 144.799L135.686 144.799L135.714 144.3ZM142.814 144.8L142.771 145.298L142.773 145.298L142.814 144.8ZM149.414 145.6L149.911 145.656L149.964 145.185L149.496 145.107L149.414 145.6ZM148.714 151.8L148.692 152.3L149.159 152.32L149.211 151.856L148.714 151.8ZM139.414 151.5L139.392 152L139.403 152L139.414 151.5ZM130.214 151.3L130.203 151.8H130.214V151.3ZM123.114 151.5L123.171 151.997L123.171 151.997L123.114 151.5ZM119.314 153.1L118.947 152.761L118.939 152.769L118.932 152.777L119.314 153.1ZM120.014 162.5L120.291 162.084L120.291 162.084L120.014 162.5ZM125.314 164.5L125.203 164.987L125.204 164.988L125.314 164.5ZM139.514 167.7L139.631 167.214L139.624 167.212L139.514 167.7ZM148.014 172L147.648 172.341L147.654 172.347L148.014 172ZM148.514 190.1L148.117 189.796L148.111 189.804L148.514 190.1ZM141.714 194.1L141.608 193.611L141.714 194.1ZM122.214 194.9L122.194 195.4L122.195 195.4L122.214 194.9ZM110.914 193.7L110.416 193.652L110.371 194.119L110.834 194.194L110.914 193.7ZM111.514 187.5L111.535 187L111.062 186.981L111.016 187.452L111.514 187.5ZM116.614 187.8L116.577 188.299L116.586 188.299L116.596 188.3L116.614 187.8ZM136.914 187.4L136.994 187.894L136.994 187.894L136.914 187.4ZM141.314 185.5L141.68 185.84L141.686 185.834L141.692 185.827L141.314 185.5ZM140.514 176.3L140.266 176.734L140.266 176.734L140.514 176.3ZM134.914 174.3L135.025 173.813L135.025 173.813L134.914 174.3ZM120.914 171.1L120.793 171.585L120.803 171.587L120.914 171.1ZM114.514 168.5L114.225 168.908L114.231 168.912L114.237 168.916L114.514 168.5ZM111.014 164.2L110.551 164.389L110.554 164.395L111.014 164.2ZM111.914 148.9L111.502 148.616L111.502 148.616L111.914 148.9ZM118.114 145L117.998 144.514L117.998 144.514L118.114 145ZM128.914 144.6C131.037 144.6 133.294 144.666 135.686 144.799L135.742 143.801C133.334 143.667 131.058 143.6 128.914 143.6V144.6ZM135.686 144.799C138.081 144.932 140.443 145.099 142.771 145.298L142.857 144.302C140.518 144.101 138.147 143.934 135.742 143.801L135.686 144.799ZM142.773 145.298C145.161 145.497 147.348 145.762 149.332 146.093L149.496 145.107C147.481 144.771 145.267 144.503 142.856 144.302L142.773 145.298ZM148.917 145.544L148.217 151.744L149.211 151.856L149.911 145.656L148.917 145.544ZM148.736 151.3C145.665 151.167 142.562 151.067 139.425 151L139.403 152C142.533 152.066 145.629 152.166 148.692 152.3L148.736 151.3ZM139.436 151C136.362 150.867 133.288 150.8 130.214 150.8V151.8C133.273 151.8 136.333 151.867 139.392 152L139.436 151ZM130.225 150.8C127.216 150.733 124.823 150.799 123.057 151.003L123.171 151.997C124.872 151.801 127.212 151.733 130.203 151.8L130.225 150.8ZM123.057 151.003C121.26 151.211 119.859 151.772 118.947 152.761L119.681 153.439C120.369 152.694 121.502 152.189 123.171 151.997L123.057 151.003ZM118.932 152.777C118.081 153.783 117.714 155.401 117.714 157.5H118.714C118.714 155.465 119.08 154.15 119.696 153.423L118.932 152.777ZM117.714 157.5C117.714 160.076 118.319 161.971 119.737 162.916L120.291 162.084C119.309 161.429 118.714 159.991 118.714 157.5H117.714ZM119.737 162.916C121.01 163.765 122.844 164.448 125.203 164.987L125.425 164.013C123.118 163.485 121.418 162.835 120.291 162.084L119.737 162.916ZM125.204 164.988L139.404 168.188L139.624 167.212L125.424 164.012L125.204 164.988ZM139.397 168.186C143.213 169.107 145.941 170.507 147.648 172.341L148.38 171.659C146.487 169.626 143.548 168.159 139.631 167.214L139.397 168.186ZM147.654 172.347C149.393 174.148 150.314 177.028 150.314 181.1H151.314C151.314 176.905 150.369 173.719 148.374 171.653L147.654 172.347ZM150.314 181.1C150.314 185.05 149.555 187.921 148.117 189.796L148.911 190.404C150.54 188.279 151.314 185.15 151.314 181.1H150.314ZM148.111 189.804C146.734 191.682 144.588 192.964 141.608 193.611L141.82 194.589C144.973 193.903 147.361 192.518 148.917 190.396L148.111 189.804ZM141.608 193.611C138.589 194.268 134.728 194.6 130.014 194.6V195.6C134.767 195.6 138.706 195.266 141.82 194.589L141.608 193.611ZM130.014 194.6C128.291 194.6 125.699 194.534 122.233 194.4L122.195 195.4C125.663 195.533 128.271 195.6 130.014 195.6V194.6ZM122.234 194.4C118.858 194.268 115.111 193.871 110.994 193.206L110.834 194.194C114.983 194.863 118.77 195.265 122.194 195.4L122.234 194.4ZM111.412 193.748L112.012 187.548L111.016 187.452L110.416 193.652L111.412 193.748ZM111.493 188C113.087 188.066 114.782 188.166 116.577 188.299L116.651 187.301C114.846 187.168 113.141 187.067 111.535 187L111.493 188ZM116.596 188.3C118.402 188.367 120.275 188.4 122.214 188.4V187.4C120.286 187.4 118.426 187.367 116.633 187.3L116.596 188.3ZM122.214 188.4C122.218 188.4 122.222 188.4 122.226 188.4C122.23 188.4 122.234 188.4 122.238 188.4C122.241 188.4 122.245 188.4 122.249 188.4C122.253 188.4 122.257 188.4 122.261 188.4C122.265 188.4 122.269 188.4 122.273 188.4C122.277 188.4 122.28 188.4 122.284 188.4C122.288 188.4 122.292 188.4 122.296 188.4C122.3 188.4 122.304 188.4 122.308 188.4C122.312 188.4 122.316 188.4 122.32 188.4C122.323 188.4 122.327 188.4 122.331 188.4C122.335 188.4 122.339 188.4 122.343 188.4C122.347 188.4 122.351 188.4 122.355 188.4C122.359 188.4 122.363 188.4 122.366 188.4C122.37 188.4 122.374 188.4 122.378 188.4C122.382 188.4 122.386 188.4 122.39 188.4C122.394 188.4 122.398 188.4 122.402 188.4C122.406 188.4 122.409 188.4 122.413 188.4C122.417 188.4 122.421 188.4 122.425 188.4C122.429 188.4 122.433 188.4 122.437 188.4C122.441 188.4 122.445 188.4 122.449 188.4C122.453 188.4 122.456 188.4 122.46 188.4C122.464 188.4 122.468 188.4 122.472 188.4C122.476 188.4 122.48 188.4 122.484 188.4C122.488 188.4 122.492 188.4 122.496 188.4C122.499 188.4 122.503 188.4 122.507 188.4C122.511 188.4 122.515 188.4 122.519 188.4C122.523 188.4 122.527 188.4 122.531 188.4C122.535 188.4 122.539 188.4 122.542 188.4C122.546 188.4 122.55 188.4 122.554 188.4C122.558 188.4 122.562 188.4 122.566 188.4C122.57 188.4 122.574 188.4 122.578 188.4C122.582 188.4 122.586 188.4 122.589 188.4C122.593 188.4 122.597 188.4 122.601 188.4C122.605 188.4 122.609 188.4 122.613 188.4C122.617 188.4 122.621 188.4 122.625 188.4C122.629 188.4 122.633 188.4 122.636 188.4C122.64 188.4 122.644 188.4 122.648 188.4C122.652 188.4 122.656 188.4 122.66 188.4C122.664 188.4 122.668 188.4 122.672 188.4C122.676 188.4 122.68 188.4 122.683 188.4C122.687 188.4 122.691 188.4 122.695 188.4C122.699 188.4 122.703 188.4 122.707 188.4C122.711 188.4 122.715 188.4 122.719 188.4C122.723 188.4 122.727 188.4 122.73 188.4C122.734 188.4 122.738 188.4 122.742 188.4C122.746 188.4 122.75 188.4 122.754 188.4C122.758 188.4 122.762 188.4 122.766 188.4C122.77 188.4 122.774 188.4 122.777 188.4C122.781 188.4 122.785 188.4 122.789 188.4C122.793 188.4 122.797 188.4 122.801 188.4C122.805 188.4 122.809 188.4 122.813 188.4C122.817 188.4 122.821 188.4 122.824 188.4C122.828 188.4 122.832 188.4 122.836 188.4C122.84 188.4 122.844 188.4 122.848 188.4C122.852 188.4 122.856 188.4 122.86 188.4C122.864 188.4 122.868 188.4 122.872 188.4C122.875 188.4 122.879 188.4 122.883 188.4C122.887 188.4 122.891 188.4 122.895 188.4C122.899 188.4 122.903 188.4 122.907 188.4C122.911 188.4 122.915 188.4 122.919 188.4C122.922 188.4 122.926 188.4 122.93 188.4C122.934 188.4 122.938 188.4 122.942 188.4C122.946 188.4 122.95 188.4 122.954 188.4C122.958 188.4 122.962 188.4 122.966 188.4C122.97 188.4 122.973 188.4 122.977 188.4C122.981 188.4 122.985 188.4 122.989 188.4C122.993 188.4 122.997 188.4 123.001 188.4C123.005 188.4 123.009 188.4 123.013 188.4C123.017 188.4 123.021 188.4 123.024 188.4C123.028 188.4 123.032 188.4 123.036 188.4C123.04 188.4 123.044 188.4 123.048 188.4C123.052 188.4 123.056 188.4 123.06 188.4C123.064 188.4 123.068 188.4 123.072 188.4C123.075 188.4 123.079 188.4 123.083 188.4C123.087 188.4 123.091 188.4 123.095 188.4C123.099 188.4 123.103 188.4 123.107 188.4C123.111 188.4 123.115 188.4 123.119 188.4C123.123 188.4 123.127 188.4 123.13 188.4C123.134 188.4 123.138 188.4 123.142 188.4C123.146 188.4 123.15 188.4 123.154 188.4C123.158 188.4 123.162 188.4 123.166 188.4C123.17 188.4 123.174 188.4 123.178 188.4C123.181 188.4 123.185 188.4 123.189 188.4C123.193 188.4 123.197 188.4 123.201 188.4C123.205 188.4 123.209 188.4 123.213 188.4C123.217 188.4 123.221 188.4 123.225 188.4C123.229 188.4 123.233 188.4 123.236 188.4C123.24 188.4 123.244 188.4 123.248 188.4C123.252 188.4 123.256 188.4 123.26 188.4C123.264 188.4 123.268 188.4 123.272 188.4C123.276 188.4 123.28 188.4 123.284 188.4C123.288 188.4 123.291 188.4 123.295 188.4C123.299 188.4 123.303 188.4 123.307 188.4C123.311 188.4 123.315 188.4 123.319 188.4C123.323 188.4 123.327 188.4 123.331 188.4C123.335 188.4 123.339 188.4 123.343 188.4C123.347 188.4 123.35 188.4 123.354 188.4C123.358 188.4 123.362 188.4 123.366 188.4C123.37 188.4 123.374 188.4 123.378 188.4C123.382 188.4 123.386 188.4 123.39 188.4C123.394 188.4 123.398 188.4 123.402 188.4C123.405 188.4 123.409 188.4 123.413 188.4C123.417 188.4 123.421 188.4 123.425 188.4C123.429 188.4 123.433 188.4 123.437 188.4C123.441 188.4 123.445 188.4 123.449 188.4C123.453 188.4 123.457 188.4 123.461 188.4C123.464 188.4 123.468 188.4 123.472 188.4C123.476 188.4 123.48 188.4 123.484 188.4C123.488 188.4 123.492 188.4 123.496 188.4C123.5 188.4 123.504 188.4 123.508 188.4C123.512 188.4 123.516 188.4 123.52 188.4C123.523 188.4 123.527 188.4 123.531 188.4C123.535 188.4 123.539 188.4 123.543 188.4C123.547 188.4 123.551 188.4 123.555 188.4C123.559 188.4 123.563 188.4 123.567 188.4C123.571 188.4 123.575 188.4 123.579 188.4C123.583 188.4 123.586 188.4 123.59 188.4C123.594 188.4 123.598 188.4 123.602 188.4C123.606 188.4 123.61 188.4 123.614 188.4C123.618 188.4 123.622 188.4 123.626 188.4C123.63 188.4 123.634 188.4 123.638 188.4C123.642 188.4 123.645 188.4 123.649 188.4C123.653 188.4 123.657 188.4 123.661 188.4C123.665 188.4 123.669 188.4 123.673 188.4C123.677 188.4 123.681 188.4 123.685 188.4C123.689 188.4 123.693 188.4 123.697 188.4C123.701 188.4 123.705 188.4 123.708 188.4C123.712 188.4 123.716 188.4 123.72 188.4C123.724 188.4 123.728 188.4 123.732 188.4C123.736 188.4 123.74 188.4 123.744 188.4C123.748 188.4 123.752 188.4 123.756 188.4C123.76 188.4 123.764 188.4 123.768 188.4C123.772 188.4 123.775 188.4 123.779 188.4C123.783 188.4 123.787 188.4 123.791 188.4C123.795 188.4 123.799 188.4 123.803 188.4C123.807 188.4 123.811 188.4 123.815 188.4C123.819 188.4 123.823 188.4 123.827 188.4C123.831 188.4 123.835 188.4 123.839 188.4C123.842 188.4 123.846 188.4 123.85 188.4C123.854 188.4 123.858 188.4 123.862 188.4C123.866 188.4 123.87 188.4 123.874 188.4C123.878 188.4 123.882 188.4 123.886 188.4C123.89 188.4 123.894 188.4 123.898 188.4C123.902 188.4 123.906 188.4 123.909 188.4C123.913 188.4 123.917 188.4 123.921 188.4C123.925 188.4 123.929 188.4 123.933 188.4C123.937 188.4 123.941 188.4 123.945 188.4C123.949 188.4 123.953 188.4 123.957 188.4C123.961 188.4 123.965 188.4 123.969 188.4C123.973 188.4 123.977 188.4 123.98 188.4C123.984 188.4 123.988 188.4 123.992 188.4C123.996 188.4 124 188.4 124.004 188.4C124.008 188.4 124.012 188.4 124.016 188.4C124.02 188.4 124.024 188.4 124.028 188.4C124.032 188.4 124.036 188.4 124.04 188.4C124.044 188.4 124.048 188.4 124.051 188.4C124.055 188.4 124.059 188.4 124.063 188.4C124.067 188.4 124.071 188.4 124.075 188.4C124.079 188.4 124.083 188.4 124.087 188.4C124.091 188.4 124.095 188.4 124.099 188.4C124.103 188.4 124.107 188.4 124.111 188.4C124.115 188.4 124.119 188.4 124.123 188.4C124.126 188.4 124.13 188.4 124.134 188.4C124.138 188.4 124.142 188.4 124.146 188.4C124.15 188.4 124.154 188.4 124.158 188.4C124.162 188.4 124.166 188.4 124.17 188.4C124.174 188.4 124.178 188.4 124.182 188.4C124.186 188.4 124.19 188.4 124.194 188.4C124.198 188.4 124.201 188.4 124.205 188.4C124.209 188.4 124.213 188.4 124.217 188.4C124.221 188.4 124.225 188.4 124.229 188.4C124.233 188.4 124.237 188.4 124.241 188.4C124.245 188.4 124.249 188.4 124.253 188.4C124.257 188.4 124.261 188.4 124.265 188.4C124.269 188.4 124.273 188.4 124.277 188.4C124.28 188.4 124.284 188.4 124.288 188.4C124.292 188.4 124.296 188.4 124.3 188.4C124.304 188.4 124.308 188.4 124.312 188.4C124.316 188.4 124.32 188.4 124.324 188.4C124.328 188.4 124.332 188.4 124.336 188.4C124.34 188.4 124.344 188.4 124.348 188.4C124.352 188.4 124.356 188.4 124.36 188.4C124.363 188.4 124.367 188.4 124.371 188.4C124.375 188.4 124.379 188.4 124.383 188.4C124.387 188.4 124.391 188.4 124.395 188.4C124.399 188.4 124.403 188.4 124.407 188.4C124.411 188.4 124.415 188.4 124.419 188.4C124.423 188.4 124.427 188.4 124.431 188.4C124.435 188.4 124.439 188.4 124.443 188.4C124.446 188.4 124.45 188.4 124.454 188.4C124.458 188.4 124.462 188.4 124.466 188.4C124.47 188.4 124.474 188.4 124.478 188.4C124.482 188.4 124.486 188.4 124.49 188.4C124.494 188.4 124.498 188.4 124.502 188.4C124.506 188.4 124.51 188.4 124.514 188.4C124.518 188.4 124.522 188.4 124.526 188.4C124.53 188.4 124.534 188.4 124.537 188.4C124.541 188.4 124.545 188.4 124.549 188.4C124.553 188.4 124.557 188.4 124.561 188.4C124.565 188.4 124.569 188.4 124.573 188.4C124.577 188.4 124.581 188.4 124.585 188.4C124.589 188.4 124.593 188.4 124.597 188.4C124.601 188.4 124.605 188.4 124.609 188.4C124.613 188.4 124.617 188.4 124.621 188.4C124.625 188.4 124.628 188.4 124.632 188.4C124.636 188.4 124.64 188.4 124.644 188.4C124.648 188.4 124.652 188.4 124.656 188.4C124.66 188.4 124.664 188.4 124.668 188.4C124.672 188.4 124.676 188.4 124.68 188.4C124.684 188.4 124.688 188.4 124.692 188.4C124.696 188.4 124.7 188.4 124.704 188.4C124.708 188.4 124.712 188.4 124.716 188.4C124.72 188.4 124.724 188.4 124.727 188.4C124.731 188.4 124.735 188.4 124.739 188.4C124.743 188.4 124.747 188.4 124.751 188.4C124.755 188.4 124.759 188.4 124.763 188.4C124.767 188.4 124.771 188.4 124.775 188.4C124.779 188.4 124.783 188.4 124.787 188.4C124.791 188.4 124.795 188.4 124.799 188.4C124.803 188.4 124.807 188.4 124.811 188.4C124.815 188.4 124.819 188.4 124.823 188.4C124.827 188.4 124.83 188.4 124.834 188.4C124.838 188.4 124.842 188.4 124.846 188.4C124.85 188.4 124.854 188.4 124.858 188.4C124.862 188.4 124.866 188.4 124.87 188.4C124.874 188.4 124.878 188.4 124.882 188.4C124.886 188.4 124.89 188.4 124.894 188.4C124.898 188.4 124.902 188.4 124.906 188.4C124.91 188.4 124.914 188.4 124.918 188.4C124.922 188.4 124.926 188.4 124.93 188.4C124.934 188.4 124.937 188.4 124.941 188.4C124.945 188.4 124.949 188.4 124.953 188.4C124.957 188.4 124.961 188.4 124.965 188.4C124.969 188.4 124.973 188.4 124.977 188.4C124.981 188.4 124.985 188.4 124.989 188.4C124.993 188.4 124.997 188.4 125.001 188.4C125.005 188.4 125.009 188.4 125.013 188.4C125.017 188.4 125.021 188.4 125.025 188.4C125.029 188.4 125.033 188.4 125.037 188.4C125.041 188.4 125.045 188.4 125.049 188.4C125.053 188.4 125.056 188.4 125.06 188.4C125.064 188.4 125.068 188.4 125.072 188.4C125.076 188.4 125.08 188.4 125.084 188.4C125.088 188.4 125.092 188.4 125.096 188.4C125.1 188.4 125.104 188.4 125.108 188.4C125.112 188.4 125.116 188.4 125.12 188.4C125.124 188.4 125.128 188.4 125.132 188.4C125.136 188.4 125.14 188.4 125.144 188.4C125.148 188.4 125.152 188.4 125.156 188.4C125.16 188.4 125.164 188.4 125.168 188.4C125.172 188.4 125.176 188.4 125.18 188.4C125.183 188.4 125.187 188.4 125.191 188.4C125.195 188.4 125.199 188.4 125.203 188.4C125.207 188.4 125.211 188.4 125.215 188.4C125.219 188.4 125.223 188.4 125.227 188.4C125.231 188.4 125.235 188.4 125.239 188.4C125.243 188.4 125.247 188.4 125.251 188.4C125.255 188.4 125.259 188.4 125.263 188.4C125.267 188.4 125.271 188.4 125.275 188.4C125.279 188.4 125.283 188.4 125.287 188.4C125.291 188.4 125.295 188.4 125.299 188.4C125.303 188.4 125.307 188.4 125.311 188.4C125.315 188.4 125.319 188.4 125.322 188.4C125.326 188.4 125.33 188.4 125.334 188.4C125.338 188.4 125.342 188.4 125.346 188.4C125.35 188.4 125.354 188.4 125.358 188.4C125.362 188.4 125.366 188.4 125.37 188.4C125.374 188.4 125.378 188.4 125.382 188.4C125.386 188.4 125.39 188.4 125.394 188.4C125.398 188.4 125.402 188.4 125.406 188.4C125.41 188.4 125.414 188.4 125.418 188.4C125.422 188.4 125.426 188.4 125.43 188.4C125.434 188.4 125.438 188.4 125.442 188.4C125.446 188.4 125.45 188.4 125.454 188.4C125.458 188.4 125.462 188.4 125.466 188.4C125.47 188.4 125.474 188.4 125.477 188.4C125.481 188.4 125.485 188.4 125.489 188.4C125.493 188.4 125.497 188.4 125.501 188.4C125.505 188.4 125.509 188.4 125.513 188.4C125.517 188.4 125.521 188.4 125.525 188.4C125.529 188.4 125.533 188.4 125.537 188.4C125.541 188.4 125.545 188.4 125.549 188.4C125.553 188.4 125.557 188.4 125.561 188.4C125.565 188.4 125.569 188.4 125.573 188.4C125.577 188.4 125.581 188.4 125.585 188.4C125.589 188.4 125.593 188.4 125.597 188.4C125.601 188.4 125.605 188.4 125.609 188.4C125.613 188.4 125.617 188.4 125.621 188.4C125.625 188.4 125.629 188.4 125.633 188.4C125.637 188.4 125.641 188.4 125.645 188.4C125.649 188.4 125.653 188.4 125.657 188.4C125.661 188.4 125.664 188.4 125.668 188.4C125.672 188.4 125.676 188.4 125.68 188.4C125.684 188.4 125.688 188.4 125.692 188.4C125.696 188.4 125.7 188.4 125.704 188.4C125.708 188.4 125.712 188.4 125.716 188.4C125.72 188.4 125.724 188.4 125.728 188.4C125.732 188.4 125.736 188.4 125.74 188.4C125.744 188.4 125.748 188.4 125.752 188.4C125.756 188.4 125.76 188.4 125.764 188.4C125.768 188.4 125.772 188.4 125.776 188.4C125.78 188.4 125.784 188.4 125.788 188.4C125.792 188.4 125.796 188.4 125.8 188.4C125.804 188.4 125.808 188.4 125.812 188.4C125.816 188.4 125.82 188.4 125.824 188.4C125.828 188.4 125.832 188.4 125.836 188.4C125.84 188.4 125.844 188.4 125.848 188.4C125.852 188.4 125.856 188.4 125.86 188.4C125.864 188.4 125.868 188.4 125.872 188.4C125.876 188.4 125.88 188.4 125.884 188.4C125.888 188.4 125.892 188.4 125.895 188.4C125.899 188.4 125.903 188.4 125.907 188.4C125.911 188.4 125.915 188.4 125.919 188.4C125.923 188.4 125.927 188.4 125.931 188.4C125.935 188.4 125.939 188.4 125.943 188.4C125.947 188.4 125.951 188.4 125.955 188.4C125.959 188.4 125.963 188.4 125.967 188.4C125.971 188.4 125.975 188.4 125.979 188.4C125.983 188.4 125.987 188.4 125.991 188.4C125.995 188.4 125.999 188.4 126.003 188.4C126.007 188.4 126.011 188.4 126.015 188.4C126.019 188.4 126.023 188.4 126.027 188.4C126.031 188.4 126.035 188.4 126.039 188.4C126.043 188.4 126.047 188.4 126.051 188.4C126.055 188.4 126.059 188.4 126.063 188.4C126.067 188.4 126.071 188.4 126.075 188.4C126.079 188.4 126.083 188.4 126.087 188.4C126.091 188.4 126.095 188.4 126.099 188.4C126.103 188.4 126.107 188.4 126.111 188.4C126.115 188.4 126.119 188.4 126.123 188.4C126.127 188.4 126.131 188.4 126.135 188.4C126.139 188.4 126.143 188.4 126.147 188.4C126.151 188.4 126.155 188.4 126.159 188.4C126.163 188.4 126.167 188.4 126.171 188.4C126.175 188.4 126.179 188.4 126.183 188.4C126.187 188.4 126.191 188.4 126.195 188.4C126.199 188.4 126.203 188.4 126.207 188.4C126.211 188.4 126.215 188.4 126.219 188.4C126.223 188.4 126.227 188.4 126.231 188.4C126.235 188.4 126.239 188.4 126.243 188.4C126.247 188.4 126.251 188.4 126.255 188.4C126.259 188.4 126.263 188.4 126.266 188.4C126.27 188.4 126.274 188.4 126.278 188.4C126.282 188.4 126.286 188.4 126.29 188.4C126.294 188.4 126.298 188.4 126.302 188.4C126.306 188.4 126.31 188.4 126.314 188.4C126.318 188.4 126.322 188.4 126.326 188.4C126.33 188.4 126.334 188.4 126.338 188.4C126.342 188.4 126.346 188.4 126.35 188.4C126.354 188.4 126.358 188.4 126.362 188.4C126.366 188.4 126.37 188.4 126.374 188.4C126.378 188.4 126.382 188.4 126.386 188.4C126.39 188.4 126.394 188.4 126.398 188.4C126.402 188.4 126.406 188.4 126.41 188.4C126.414 188.4 126.418 188.4 126.422 188.4C126.426 188.4 126.43 188.4 126.434 188.4C126.438 188.4 126.442 188.4 126.446 188.4C126.45 188.4 126.454 188.4 126.458 188.4C126.462 188.4 126.466 188.4 126.47 188.4C126.474 188.4 126.478 188.4 126.482 188.4C126.486 188.4 126.49 188.4 126.494 188.4C126.498 188.4 126.502 188.4 126.506 188.4C126.51 188.4 126.514 188.4 126.518 188.4C126.522 188.4 126.526 188.4 126.53 188.4C126.534 188.4 126.538 188.4 126.542 188.4C126.546 188.4 126.55 188.4 126.554 188.4C126.558 188.4 126.562 188.4 126.566 188.4C126.57 188.4 126.574 188.4 126.578 188.4C126.582 188.4 126.586 188.4 126.59 188.4C126.594 188.4 126.598 188.4 126.602 188.4C126.606 188.4 126.61 188.4 126.614 188.4C126.618 188.4 126.622 188.4 126.626 188.4C126.63 188.4 126.634 188.4 126.638 188.4C126.642 188.4 126.646 188.4 126.65 188.4C126.654 188.4 126.658 188.4 126.662 188.4C126.666 188.4 126.67 188.4 126.674 188.4C126.678 188.4 126.682 188.4 126.686 188.4C126.69 188.4 126.694 188.4 126.698 188.4C126.702 188.4 126.706 188.4 126.71 188.4C126.714 188.4 126.718 188.4 126.722 188.4C126.726 188.4 126.73 188.4 126.734 188.4C126.738 188.4 126.742 188.4 126.746 188.4C126.75 188.4 126.754 188.4 126.758 188.4C126.762 188.4 126.766 188.4 126.77 188.4C126.774 188.4 126.778 188.4 126.782 188.4C126.786 188.4 126.79 188.4 126.794 188.4C126.798 188.4 126.802 188.4 126.806 188.4C126.81 188.4 126.814 188.4 126.818 188.4C126.822 188.4 126.826 188.4 126.83 188.4C126.834 188.4 126.838 188.4 126.842 188.4C126.846 188.4 126.85 188.4 126.854 188.4C126.858 188.4 126.862 188.4 126.866 188.4C126.87 188.4 126.874 188.4 126.878 188.4C126.882 188.4 126.886 188.4 126.89 188.4C126.894 188.4 126.898 188.4 126.902 188.4C126.906 188.4 126.911 188.4 126.915 188.4C126.919 188.4 126.923 188.4 126.927 188.4C126.931 188.4 126.935 188.4 126.939 188.4C126.943 188.4 126.947 188.4 126.951 188.4C126.955 188.4 126.959 188.4 126.963 188.4C126.967 188.4 126.971 188.4 126.975 188.4C126.979 188.4 126.983 188.4 126.987 188.4C126.991 188.4 126.995 188.4 126.999 188.4C127.003 188.4 127.007 188.4 127.011 188.4C127.015 188.4 127.019 188.4 127.023 188.4C127.027 188.4 127.031 188.4 127.035 188.4C127.039 188.4 127.043 188.4 127.047 188.4C127.051 188.4 127.055 188.4 127.059 188.4C127.063 188.4 127.067 188.4 127.071 188.4C127.075 188.4 127.079 188.4 127.083 188.4C127.087 188.4 127.091 188.4 127.095 188.4C127.099 188.4 127.103 188.4 127.107 188.4C127.111 188.4 127.115 188.4 127.119 188.4C127.123 188.4 127.127 188.4 127.131 188.4C127.135 188.4 127.139 188.4 127.143 188.4C127.147 188.4 127.151 188.4 127.155 188.4C127.159 188.4 127.163 188.4 127.167 188.4C127.171 188.4 127.175 188.4 127.179 188.4C127.183 188.4 127.187 188.4 127.191 188.4C127.195 188.4 127.199 188.4 127.203 188.4C127.207 188.4 127.211 188.4 127.215 188.4C127.219 188.4 127.223 188.4 127.227 188.4C127.231 188.4 127.235 188.4 127.239 188.4C127.243 188.4 127.247 188.4 127.251 188.4C127.255 188.4 127.259 188.4 127.263 188.4C127.267 188.4 127.271 188.4 127.275 188.4C127.279 188.4 127.284 188.4 127.288 188.4C127.292 188.4 127.296 188.4 127.3 188.4C127.304 188.4 127.308 188.4 127.312 188.4C127.316 188.4 127.32 188.4 127.324 188.4C127.328 188.4 127.332 188.4 127.336 188.4C127.34 188.4 127.344 188.4 127.348 188.4C127.352 188.4 127.356 188.4 127.36 188.4C127.364 188.4 127.368 188.4 127.372 188.4C127.376 188.4 127.38 188.4 127.384 188.4C127.388 188.4 127.392 188.4 127.396 188.4C127.4 188.4 127.404 188.4 127.408 188.4C127.412 188.4 127.416 188.4 127.42 188.4C127.424 188.4 127.428 188.4 127.432 188.4C127.436 188.4 127.44 188.4 127.444 188.4C127.448 188.4 127.452 188.4 127.456 188.4C127.46 188.4 127.464 188.4 127.468 188.4C127.472 188.4 127.476 188.4 127.48 188.4C127.484 188.4 127.488 188.4 127.492 188.4C127.496 188.4 127.5 188.4 127.504 188.4C127.508 188.4 127.512 188.4 127.517 188.4C127.521 188.4 127.525 188.4 127.529 188.4C127.533 188.4 127.537 188.4 127.541 188.4C127.545 188.4 127.549 188.4 127.553 188.4C127.557 188.4 127.561 188.4 127.565 188.4C127.569 188.4 127.573 188.4 127.577 188.4C127.581 188.4 127.585 188.4 127.589 188.4C127.593 188.4 127.597 188.4 127.601 188.4C127.605 188.4 127.609 188.4 127.613 188.4C127.617 188.4 127.621 188.4 127.625 188.4C127.629 188.4 127.633 188.4 127.637 188.4C127.641 188.4 127.645 188.4 127.649 188.4C127.653 188.4 127.657 188.4 127.661 188.4C127.665 188.4 127.669 188.4 127.673 188.4C127.677 188.4 127.681 188.4 127.685 188.4C127.689 188.4 127.693 188.4 127.697 188.4C127.702 188.4 127.706 188.4 127.71 188.4C127.714 188.4 127.718 188.4 127.722 188.4C127.726 188.4 127.73 188.4 127.734 188.4C127.738 188.4 127.742 188.4 127.746 188.4C127.75 188.4 127.754 188.4 127.758 188.4C127.762 188.4 127.766 188.4 127.77 188.4C127.774 188.4 127.778 188.4 127.782 188.4C127.786 188.4 127.79 188.4 127.794 188.4C127.798 188.4 127.802 188.4 127.806 188.4C127.81 188.4 127.814 188.4 127.818 188.4C127.822 188.4 127.826 188.4 127.83 188.4C127.834 188.4 127.838 188.4 127.842 188.4C127.846 188.4 127.85 188.4 127.854 188.4C127.858 188.4 127.863 188.4 127.867 188.4C127.871 188.4 127.875 188.4 127.879 188.4C127.883 188.4 127.887 188.4 127.891 188.4C127.895 188.4 127.899 188.4 127.903 188.4C127.907 188.4 127.911 188.4 127.915 188.4C127.919 188.4 127.923 188.4 127.927 188.4C127.931 188.4 127.935 188.4 127.939 188.4C127.943 188.4 127.947 188.4 127.951 188.4C127.955 188.4 127.959 188.4 127.963 188.4C127.967 188.4 127.971 188.4 127.975 188.4C127.979 188.4 127.983 188.4 127.987 188.4C127.991 188.4 127.995 188.4 127.999 188.4C128.004 188.4 128.008 188.4 128.012 188.4C128.016 188.4 128.02 188.4 128.024 188.4C128.028 188.4 128.032 188.4 128.036 188.4C128.04 188.4 128.044 188.4 128.048 188.4C128.052 188.4 128.056 188.4 128.06 188.4C128.064 188.4 128.068 188.4 128.072 188.4C128.076 188.4 128.08 188.4 128.084 188.4C128.088 188.4 128.092 188.4 128.096 188.4C128.1 188.4 128.104 188.4 128.108 188.4C128.112 188.4 128.116 188.4 128.12 188.4C128.124 188.4 128.128 188.4 128.133 188.4C128.137 188.4 128.141 188.4 128.145 188.4C128.149 188.4 128.153 188.4 128.157 188.4C128.161 188.4 128.165 188.4 128.169 188.4C128.173 188.4 128.177 188.4 128.181 188.4C128.185 188.4 128.189 188.4 128.193 188.4C128.197 188.4 128.201 188.4 128.205 188.4C128.209 188.4 128.213 188.4 128.217 188.4C128.221 188.4 128.225 188.4 128.229 188.4C128.233 188.4 128.237 188.4 128.241 188.4C128.245 188.4 128.249 188.4 128.254 188.4C128.258 188.4 128.262 188.4 128.266 188.4C128.27 188.4 128.274 188.4 128.278 188.4C128.282 188.4 128.286 188.4 128.29 188.4C128.294 188.4 128.298 188.4 128.302 188.4C128.306 188.4 128.31 188.4 128.314 188.4V187.4C128.31 187.4 128.306 187.4 128.302 187.4C128.298 187.4 128.294 187.4 128.29 187.4C128.286 187.4 128.282 187.4 128.278 187.4C128.274 187.4 128.27 187.4 128.266 187.4C128.262 187.4 128.258 187.4 128.254 187.4C128.249 187.4 128.245 187.4 128.241 187.4C128.237 187.4 128.233 187.4 128.229 187.4C128.225 187.4 128.221 187.4 128.217 187.4C128.213 187.4 128.209 187.4 128.205 187.4C128.201 187.4 128.197 187.4 128.193 187.4C128.189 187.4 128.185 187.4 128.181 187.4C128.177 187.4 128.173 187.4 128.169 187.4C128.165 187.4 128.161 187.4 128.157 187.4C128.153 187.4 128.149 187.4 128.145 187.4C128.141 187.4 128.137 187.4 128.133 187.4C128.128 187.4 128.124 187.4 128.12 187.4C128.116 187.4 128.112 187.4 128.108 187.4C128.104 187.4 128.1 187.4 128.096 187.4C128.092 187.4 128.088 187.4 128.084 187.4C128.08 187.4 128.076 187.4 128.072 187.4C128.068 187.4 128.064 187.4 128.06 187.4C128.056 187.4 128.052 187.4 128.048 187.4C128.044 187.4 128.04 187.4 128.036 187.4C128.032 187.4 128.028 187.4 128.024 187.4C128.02 187.4 128.016 187.4 128.012 187.4C128.008 187.4 128.004 187.4 127.999 187.4C127.995 187.4 127.991 187.4 127.987 187.4C127.983 187.4 127.979 187.4 127.975 187.4C127.971 187.4 127.967 187.4 127.963 187.4C127.959 187.4 127.955 187.4 127.951 187.4C127.947 187.4 127.943 187.4 127.939 187.4C127.935 187.4 127.931 187.4 127.927 187.4C127.923 187.4 127.919 187.4 127.915 187.4C127.911 187.4 127.907 187.4 127.903 187.4C127.899 187.4 127.895 187.4 127.891 187.4C127.887 187.4 127.883 187.4 127.879 187.4C127.875 187.4 127.871 187.4 127.867 187.4C127.863 187.4 127.858 187.4 127.854 187.4C127.85 187.4 127.846 187.4 127.842 187.4C127.838 187.4 127.834 187.4 127.83 187.4C127.826 187.4 127.822 187.4 127.818 187.4C127.814 187.4 127.81 187.4 127.806 187.4C127.802 187.4 127.798 187.4 127.794 187.4C127.79 187.4 127.786 187.4 127.782 187.4C127.778 187.4 127.774 187.4 127.77 187.4C127.766 187.4 127.762 187.4 127.758 187.4C127.754 187.4 127.75 187.4 127.746 187.4C127.742 187.4 127.738 187.4 127.734 187.4C127.73 187.4 127.726 187.4 127.722 187.4C127.718 187.4 127.714 187.4 127.71 187.4C127.706 187.4 127.702 187.4 127.697 187.4C127.693 187.4 127.689 187.4 127.685 187.4C127.681 187.4 127.677 187.4 127.673 187.4C127.669 187.4 127.665 187.4 127.661 187.4C127.657 187.4 127.653 187.4 127.649 187.4C127.645 187.4 127.641 187.4 127.637 187.4C127.633 187.4 127.629 187.4 127.625 187.4C127.621 187.4 127.617 187.4 127.613 187.4C127.609 187.4 127.605 187.4 127.601 187.4C127.597 187.4 127.593 187.4 127.589 187.4C127.585 187.4 127.581 187.4 127.577 187.4C127.573 187.4 127.569 187.4 127.565 187.4C127.561 187.4 127.557 187.4 127.553 187.4C127.549 187.4 127.545 187.4 127.541 187.4C127.537 187.4 127.533 187.4 127.529 187.4C127.525 187.4 127.521 187.4 127.517 187.4C127.512 187.4 127.508 187.4 127.504 187.4C127.5 187.4 127.496 187.4 127.492 187.4C127.488 187.4 127.484 187.4 127.48 187.4C127.476 187.4 127.472 187.4 127.468 187.4C127.464 187.4 127.46 187.4 127.456 187.4C127.452 187.4 127.448 187.4 127.444 187.4C127.44 187.4 127.436 187.4 127.432 187.4C127.428 187.4 127.424 187.4 127.42 187.4C127.416 187.4 127.412 187.4 127.408 187.4C127.404 187.4 127.4 187.4 127.396 187.4C127.392 187.4 127.388 187.4 127.384 187.4C127.38 187.4 127.376 187.4 127.372 187.4C127.368 187.4 127.364 187.4 127.36 187.4C127.356 187.4 127.352 187.4 127.348 187.4C127.344 187.4 127.34 187.4 127.336 187.4C127.332 187.4 127.328 187.4 127.324 187.4C127.32 187.4 127.316 187.4 127.312 187.4C127.308 187.4 127.304 187.4 127.3 187.4C127.296 187.4 127.292 187.4 127.288 187.4C127.284 187.4 127.279 187.4 127.275 187.4C127.271 187.4 127.267 187.4 127.263 187.4C127.259 187.4 127.255 187.4 127.251 187.4C127.247 187.4 127.243 187.4 127.239 187.4C127.235 187.4 127.231 187.4 127.227 187.4C127.223 187.4 127.219 187.4 127.215 187.4C127.211 187.4 127.207 187.4 127.203 187.4C127.199 187.4 127.195 187.4 127.191 187.4C127.187 187.4 127.183 187.4 127.179 187.4C127.175 187.4 127.171 187.4 127.167 187.4C127.163 187.4 127.159 187.4 127.155 187.4C127.151 187.4 127.147 187.4 127.143 187.4C127.139 187.4 127.135 187.4 127.131 187.4C127.127 187.4 127.123 187.4 127.119 187.4C127.115 187.4 127.111 187.4 127.107 187.4C127.103 187.4 127.099 187.4 127.095 187.4C127.091 187.4 127.087 187.4 127.083 187.4C127.079 187.4 127.075 187.4 127.071 187.4C127.067 187.4 127.063 187.4 127.059 187.4C127.055 187.4 127.051 187.4 127.047 187.4C127.043 187.4 127.039 187.4 127.035 187.4C127.031 187.4 127.027 187.4 127.023 187.4C127.019 187.4 127.015 187.4 127.011 187.4C127.007 187.4 127.003 187.4 126.999 187.4C126.995 187.4 126.991 187.4 126.987 187.4C126.983 187.4 126.979 187.4 126.975 187.4C126.971 187.4 126.967 187.4 126.963 187.4C126.959 187.4 126.955 187.4 126.951 187.4C126.947 187.4 126.943 187.4 126.939 187.4C126.935 187.4 126.931 187.4 126.927 187.4C126.923 187.4 126.919 187.4 126.915 187.4C126.911 187.4 126.906 187.4 126.902 187.4C126.898 187.4 126.894 187.4 126.89 187.4C126.886 187.4 126.882 187.4 126.878 187.4C126.874 187.4 126.87 187.4 126.866 187.4C126.862 187.4 126.858 187.4 126.854 187.4C126.85 187.4 126.846 187.4 126.842 187.4C126.838 187.4 126.834 187.4 126.83 187.4C126.826 187.4 126.822 187.4 126.818 187.4C126.814 187.4 126.81 187.4 126.806 187.4C126.802 187.4 126.798 187.4 126.794 187.4C126.79 187.4 126.786 187.4 126.782 187.4C126.778 187.4 126.774 187.4 126.77 187.4C126.766 187.4 126.762 187.4 126.758 187.4C126.754 187.4 126.75 187.4 126.746 187.4C126.742 187.4 126.738 187.4 126.734 187.4C126.73 187.4 126.726 187.4 126.722 187.4C126.718 187.4 126.714 187.4 126.71 187.4C126.706 187.4 126.702 187.4 126.698 187.4C126.694 187.4 126.69 187.4 126.686 187.4C126.682 187.4 126.678 187.4 126.674 187.4C126.67 187.4 126.666 187.4 126.662 187.4C126.658 187.4 126.654 187.4 126.65 187.4C126.646 187.4 126.642 187.4 126.638 187.4C126.634 187.4 126.63 187.4 126.626 187.4C126.622 187.4 126.618 187.4 126.614 187.4C126.61 187.4 126.606 187.4 126.602 187.4C126.598 187.4 126.594 187.4 126.59 187.4C126.586 187.4 126.582 187.4 126.578 187.4C126.574 187.4 126.57 187.4 126.566 187.4C126.562 187.4 126.558 187.4 126.554 187.4C126.55 187.4 126.546 187.4 126.542 187.4C126.538 187.4 126.534 187.4 126.53 187.4C126.526 187.4 126.522 187.4 126.518 187.4C126.514 187.4 126.51 187.4 126.506 187.4C126.502 187.4 126.498 187.4 126.494 187.4C126.49 187.4 126.486 187.4 126.482 187.4C126.478 187.4 126.474 187.4 126.47 187.4C126.466 187.4 126.462 187.4 126.458 187.4C126.454 187.4 126.45 187.4 126.446 187.4C126.442 187.4 126.438 187.4 126.434 187.4C126.43 187.4 126.426 187.4 126.422 187.4C126.418 187.4 126.414 187.4 126.41 187.4C126.406 187.4 126.402 187.4 126.398 187.4C126.394 187.4 126.39 187.4 126.386 187.4C126.382 187.4 126.378 187.4 126.374 187.4C126.37 187.4 126.366 187.4 126.362 187.4C126.358 187.4 126.354 187.4 126.35 187.4C126.346 187.4 126.342 187.4 126.338 187.4C126.334 187.4 126.33 187.4 126.326 187.4C126.322 187.4 126.318 187.4 126.314 187.4C126.31 187.4 126.306 187.4 126.302 187.4C126.298 187.4 126.294 187.4 126.29 187.4C126.286 187.4 126.282 187.4 126.278 187.4C126.274 187.4 126.27 187.4 126.266 187.4C126.263 187.4 126.259 187.4 126.255 187.4C126.251 187.4 126.247 187.4 126.243 187.4C126.239 187.4 126.235 187.4 126.231 187.4C126.227 187.4 126.223 187.4 126.219 187.4C126.215 187.4 126.211 187.4 126.207 187.4C126.203 187.4 126.199 187.4 126.195 187.4C126.191 187.4 126.187 187.4 126.183 187.4C126.179 187.4 126.175 187.4 126.171 187.4C126.167 187.4 126.163 187.4 126.159 187.4C126.155 187.4 126.151 187.4 126.147 187.4C126.143 187.4 126.139 187.4 126.135 187.4C126.131 187.4 126.127 187.4 126.123 187.4C126.119 187.4 126.115 187.4 126.111 187.4C126.107 187.4 126.103 187.4 126.099 187.4C126.095 187.4 126.091 187.4 126.087 187.4C126.083 187.4 126.079 187.4 126.075 187.4C126.071 187.4 126.067 187.4 126.063 187.4C126.059 187.4 126.055 187.4 126.051 187.4C126.047 187.4 126.043 187.4 126.039 187.4C126.035 187.4 126.031 187.4 126.027 187.4C126.023 187.4 126.019 187.4 126.015 187.4C126.011 187.4 126.007 187.4 126.003 187.4C125.999 187.4 125.995 187.4 125.991 187.4C125.987 187.4 125.983 187.4 125.979 187.4C125.975 187.4 125.971 187.4 125.967 187.4C125.963 187.4 125.959 187.4 125.955 187.4C125.951 187.4 125.947 187.4 125.943 187.4C125.939 187.4 125.935 187.4 125.931 187.4C125.927 187.4 125.923 187.4 125.919 187.4C125.915 187.4 125.911 187.4 125.907 187.4C125.903 187.4 125.899 187.4 125.895 187.4C125.892 187.4 125.888 187.4 125.884 187.4C125.88 187.4 125.876 187.4 125.872 187.4C125.868 187.4 125.864 187.4 125.86 187.4C125.856 187.4 125.852 187.4 125.848 187.4C125.844 187.4 125.84 187.4 125.836 187.4C125.832 187.4 125.828 187.4 125.824 187.4C125.82 187.4 125.816 187.4 125.812 187.4C125.808 187.4 125.804 187.4 125.8 187.4C125.796 187.4 125.792 187.4 125.788 187.4C125.784 187.4 125.78 187.4 125.776 187.4C125.772 187.4 125.768 187.4 125.764 187.4C125.76 187.4 125.756 187.4 125.752 187.4C125.748 187.4 125.744 187.4 125.74 187.4C125.736 187.4 125.732 187.4 125.728 187.4C125.724 187.4 125.72 187.4 125.716 187.4C125.712 187.4 125.708 187.4 125.704 187.4C125.7 187.4 125.696 187.4 125.692 187.4C125.688 187.4 125.684 187.4 125.68 187.4C125.676 187.4 125.672 187.4 125.668 187.4C125.664 187.4 125.661 187.4 125.657 187.4C125.653 187.4 125.649 187.4 125.645 187.4C125.641 187.4 125.637 187.4 125.633 187.4C125.629 187.4 125.625 187.4 125.621 187.4C125.617 187.4 125.613 187.4 125.609 187.4C125.605 187.4 125.601 187.4 125.597 187.4C125.593 187.4 125.589 187.4 125.585 187.4C125.581 187.4 125.577 187.4 125.573 187.4C125.569 187.4 125.565 187.4 125.561 187.4C125.557 187.4 125.553 187.4 125.549 187.4C125.545 187.4 125.541 187.4 125.537 187.4C125.533 187.4 125.529 187.4 125.525 187.4C125.521 187.4 125.517 187.4 125.513 187.4C125.509 187.4 125.505 187.4 125.501 187.4C125.497 187.4 125.493 187.4 125.489 187.4C125.485 187.4 125.481 187.4 125.477 187.4C125.474 187.4 125.47 187.4 125.466 187.4C125.462 187.4 125.458 187.4 125.454 187.4C125.45 187.4 125.446 187.4 125.442 187.4C125.438 187.4 125.434 187.4 125.43 187.4C125.426 187.4 125.422 187.4 125.418 187.4C125.414 187.4 125.41 187.4 125.406 187.4C125.402 187.4 125.398 187.4 125.394 187.4C125.39 187.4 125.386 187.4 125.382 187.4C125.378 187.4 125.374 187.4 125.37 187.4C125.366 187.4 125.362 187.4 125.358 187.4C125.354 187.4 125.35 187.4 125.346 187.4C125.342 187.4 125.338 187.4 125.334 187.4C125.33 187.4 125.326 187.4 125.322 187.4C125.319 187.4 125.315 187.4 125.311 187.4C125.307 187.4 125.303 187.4 125.299 187.4C125.295 187.4 125.291 187.4 125.287 187.4C125.283 187.4 125.279 187.4 125.275 187.4C125.271 187.4 125.267 187.4 125.263 187.4C125.259 187.4 125.255 187.4 125.251 187.4C125.247 187.4 125.243 187.4 125.239 187.4C125.235 187.4 125.231 187.4 125.227 187.4C125.223 187.4 125.219 187.4 125.215 187.4C125.211 187.4 125.207 187.4 125.203 187.4C125.199 187.4 125.195 187.4 125.191 187.4C125.187 187.4 125.183 187.4 125.18 187.4C125.176 187.4 125.172 187.4 125.168 187.4C125.164 187.4 125.16 187.4 125.156 187.4C125.152 187.4 125.148 187.4 125.144 187.4C125.14 187.4 125.136 187.4 125.132 187.4C125.128 187.4 125.124 187.4 125.12 187.4C125.116 187.4 125.112 187.4 125.108 187.4C125.104 187.4 125.1 187.4 125.096 187.4C125.092 187.4 125.088 187.4 125.084 187.4C125.08 187.4 125.076 187.4 125.072 187.4C125.068 187.4 125.064 187.4 125.06 187.4C125.056 187.4 125.053 187.4 125.049 187.4C125.045 187.4 125.041 187.4 125.037 187.4C125.033 187.4 125.029 187.4 125.025 187.4C125.021 187.4 125.017 187.4 125.013 187.4C125.009 187.4 125.005 187.4 125.001 187.4C124.997 187.4 124.993 187.4 124.989 187.4C124.985 187.4 124.981 187.4 124.977 187.4C124.973 187.4 124.969 187.4 124.965 187.4C124.961 187.4 124.957 187.4 124.953 187.4C124.949 187.4 124.945 187.4 124.941 187.4C124.937 187.4 124.934 187.4 124.93 187.4C124.926 187.4 124.922 187.4 124.918 187.4C124.914 187.4 124.91 187.4 124.906 187.4C124.902 187.4 124.898 187.4 124.894 187.4C124.89 187.4 124.886 187.4 124.882 187.4C124.878 187.4 124.874 187.4 124.87 187.4C124.866 187.4 124.862 187.4 124.858 187.4C124.854 187.4 124.85 187.4 124.846 187.4C124.842 187.4 124.838 187.4 124.834 187.4C124.83 187.4 124.827 187.4 124.823 187.4C124.819 187.4 124.815 187.4 124.811 187.4C124.807 187.4 124.803 187.4 124.799 187.4C124.795 187.4 124.791 187.4 124.787 187.4C124.783 187.4 124.779 187.4 124.775 187.4C124.771 187.4 124.767 187.4 124.763 187.4C124.759 187.4 124.755 187.4 124.751 187.4C124.747 187.4 124.743 187.4 124.739 187.4C124.735 187.4 124.731 187.4 124.727 187.4C124.724 187.4 124.72 187.4 124.716 187.4C124.712 187.4 124.708 187.4 124.704 187.4C124.7 187.4 124.696 187.4 124.692 187.4C124.688 187.4 124.684 187.4 124.68 187.4C124.676 187.4 124.672 187.4 124.668 187.4C124.664 187.4 124.66 187.4 124.656 187.4C124.652 187.4 124.648 187.4 124.644 187.4C124.64 187.4 124.636 187.4 124.632 187.4C124.628 187.4 124.625 187.4 124.621 187.4C124.617 187.4 124.613 187.4 124.609 187.4C124.605 187.4 124.601 187.4 124.597 187.4C124.593 187.4 124.589 187.4 124.585 187.4C124.581 187.4 124.577 187.4 124.573 187.4C124.569 187.4 124.565 187.4 124.561 187.4C124.557 187.4 124.553 187.4 124.549 187.4C124.545 187.4 124.541 187.4 124.537 187.4C124.534 187.4 124.53 187.4 124.526 187.4C124.522 187.4 124.518 187.4 124.514 187.4C124.51 187.4 124.506 187.4 124.502 187.4C124.498 187.4 124.494 187.4 124.49 187.4C124.486 187.4 124.482 187.4 124.478 187.4C124.474 187.4 124.47 187.4 124.466 187.4C124.462 187.4 124.458 187.4 124.454 187.4C124.45 187.4 124.446 187.4 124.443 187.4C124.439 187.4 124.435 187.4 124.431 187.4C124.427 187.4 124.423 187.4 124.419 187.4C124.415 187.4 124.411 187.4 124.407 187.4C124.403 187.4 124.399 187.4 124.395 187.4C124.391 187.4 124.387 187.4 124.383 187.4C124.379 187.4 124.375 187.4 124.371 187.4C124.367 187.4 124.363 187.4 124.36 187.4C124.356 187.4 124.352 187.4 124.348 187.4C124.344 187.4 124.34 187.4 124.336 187.4C124.332 187.4 124.328 187.4 124.324 187.4C124.32 187.4 124.316 187.4 124.312 187.4C124.308 187.4 124.304 187.4 124.3 187.4C124.296 187.4 124.292 187.4 124.288 187.4C124.284 187.4 124.28 187.4 124.277 187.4C124.273 187.4 124.269 187.4 124.265 187.4C124.261 187.4 124.257 187.4 124.253 187.4C124.249 187.4 124.245 187.4 124.241 187.4C124.237 187.4 124.233 187.4 124.229 187.4C124.225 187.4 124.221 187.4 124.217 187.4C124.213 187.4 124.209 187.4 124.205 187.4C124.201 187.4 124.198 187.4 124.194 187.4C124.19 187.4 124.186 187.4 124.182 187.4C124.178 187.4 124.174 187.4 124.17 187.4C124.166 187.4 124.162 187.4 124.158 187.4C124.154 187.4 124.15 187.4 124.146 187.4C124.142 187.4 124.138 187.4 124.134 187.4C124.13 187.4 124.126 187.4 124.123 187.4C124.119 187.4 124.115 187.4 124.111 187.4C124.107 187.4 124.103 187.4 124.099 187.4C124.095 187.4 124.091 187.4 124.087 187.4C124.083 187.4 124.079 187.4 124.075 187.4C124.071 187.4 124.067 187.4 124.063 187.4C124.059 187.4 124.055 187.4 124.051 187.4C124.048 187.4 124.044 187.4 124.04 187.4C124.036 187.4 124.032 187.4 124.028 187.4C124.024 187.4 124.02 187.4 124.016 187.4C124.012 187.4 124.008 187.4 124.004 187.4C124 187.4 123.996 187.4 123.992 187.4C123.988 187.4 123.984 187.4 123.98 187.4C123.977 187.4 123.973 187.4 123.969 187.4C123.965 187.4 123.961 187.4 123.957 187.4C123.953 187.4 123.949 187.4 123.945 187.4C123.941 187.4 123.937 187.4 123.933 187.4C123.929 187.4 123.925 187.4 123.921 187.4C123.917 187.4 123.913 187.4 123.909 187.4C123.906 187.4 123.902 187.4 123.898 187.4C123.894 187.4 123.89 187.4 123.886 187.4C123.882 187.4 123.878 187.4 123.874 187.4C123.87 187.4 123.866 187.4 123.862 187.4C123.858 187.4 123.854 187.4 123.85 187.4C123.846 187.4 123.842 187.4 123.839 187.4C123.835 187.4 123.831 187.4 123.827 187.4C123.823 187.4 123.819 187.4 123.815 187.4C123.811 187.4 123.807 187.4 123.803 187.4C123.799 187.4 123.795 187.4 123.791 187.4C123.787 187.4 123.783 187.4 123.779 187.4C123.775 187.4 123.772 187.4 123.768 187.4C123.764 187.4 123.76 187.4 123.756 187.4C123.752 187.4 123.748 187.4 123.744 187.4C123.74 187.4 123.736 187.4 123.732 187.4C123.728 187.4 123.724 187.4 123.72 187.4C123.716 187.4 123.712 187.4 123.708 187.4C123.705 187.4 123.701 187.4 123.697 187.4C123.693 187.4 123.689 187.4 123.685 187.4C123.681 187.4 123.677 187.4 123.673 187.4C123.669 187.4 123.665 187.4 123.661 187.4C123.657 187.4 123.653 187.4 123.649 187.4C123.645 187.4 123.642 187.4 123.638 187.4C123.634 187.4 123.63 187.4 123.626 187.4C123.622 187.4 123.618 187.4 123.614 187.4C123.61 187.4 123.606 187.4 123.602 187.4C123.598 187.4 123.594 187.4 123.59 187.4C123.586 187.4 123.583 187.4 123.579 187.4C123.575 187.4 123.571 187.4 123.567 187.4C123.563 187.4 123.559 187.4 123.555 187.4C123.551 187.4 123.547 187.4 123.543 187.4C123.539 187.4 123.535 187.4 123.531 187.4C123.527 187.4 123.523 187.4 123.52 187.4C123.516 187.4 123.512 187.4 123.508 187.4C123.504 187.4 123.5 187.4 123.496 187.4C123.492 187.4 123.488 187.4 123.484 187.4C123.48 187.4 123.476 187.4 123.472 187.4C123.468 187.4 123.464 187.4 123.461 187.4C123.457 187.4 123.453 187.4 123.449 187.4C123.445 187.4 123.441 187.4 123.437 187.4C123.433 187.4 123.429 187.4 123.425 187.4C123.421 187.4 123.417 187.4 123.413 187.4C123.409 187.4 123.405 187.4 123.402 187.4C123.398 187.4 123.394 187.4 123.39 187.4C123.386 187.4 123.382 187.4 123.378 187.4C123.374 187.4 123.37 187.4 123.366 187.4C123.362 187.4 123.358 187.4 123.354 187.4C123.35 187.4 123.347 187.4 123.343 187.4C123.339 187.4 123.335 187.4 123.331 187.4C123.327 187.4 123.323 187.4 123.319 187.4C123.315 187.4 123.311 187.4 123.307 187.4C123.303 187.4 123.299 187.4 123.295 187.4C123.291 187.4 123.288 187.4 123.284 187.4C123.28 187.4 123.276 187.4 123.272 187.4C123.268 187.4 123.264 187.4 123.26 187.4C123.256 187.4 123.252 187.4 123.248 187.4C123.244 187.4 123.24 187.4 123.236 187.4C123.233 187.4 123.229 187.4 123.225 187.4C123.221 187.4 123.217 187.4 123.213 187.4C123.209 187.4 123.205 187.4 123.201 187.4C123.197 187.4 123.193 187.4 123.189 187.4C123.185 187.4 123.181 187.4 123.178 187.4C123.174 187.4 123.17 187.4 123.166 187.4C123.162 187.4 123.158 187.4 123.154 187.4C123.15 187.4 123.146 187.4 123.142 187.4C123.138 187.4 123.134 187.4 123.13 187.4C123.127 187.4 123.123 187.4 123.119 187.4C123.115 187.4 123.111 187.4 123.107 187.4C123.103 187.4 123.099 187.4 123.095 187.4C123.091 187.4 123.087 187.4 123.083 187.4C123.079 187.4 123.075 187.4 123.072 187.4C123.068 187.4 123.064 187.4 123.06 187.4C123.056 187.4 123.052 187.4 123.048 187.4C123.044 187.4 123.04 187.4 123.036 187.4C123.032 187.4 123.028 187.4 123.024 187.4C123.021 187.4 123.017 187.4 123.013 187.4C123.009 187.4 123.005 187.4 123.001 187.4C122.997 187.4 122.993 187.4 122.989 187.4C122.985 187.4 122.981 187.4 122.977 187.4C122.973 187.4 122.97 187.4 122.966 187.4C122.962 187.4 122.958 187.4 122.954 187.4C122.95 187.4 122.946 187.4 122.942 187.4C122.938 187.4 122.934 187.4 122.93 187.4C122.926 187.4 122.922 187.4 122.919 187.4C122.915 187.4 122.911 187.4 122.907 187.4C122.903 187.4 122.899 187.4 122.895 187.4C122.891 187.4 122.887 187.4 122.883 187.4C122.879 187.4 122.875 187.4 122.872 187.4C122.868 187.4 122.864 187.4 122.86 187.4C122.856 187.4 122.852 187.4 122.848 187.4C122.844 187.4 122.84 187.4 122.836 187.4C122.832 187.4 122.828 187.4 122.824 187.4C122.821 187.4 122.817 187.4 122.813 187.4C122.809 187.4 122.805 187.4 122.801 187.4C122.797 187.4 122.793 187.4 122.789 187.4C122.785 187.4 122.781 187.4 122.777 187.4C122.774 187.4 122.77 187.4 122.766 187.4C122.762 187.4 122.758 187.4 122.754 187.4C122.75 187.4 122.746 187.4 122.742 187.4C122.738 187.4 122.734 187.4 122.73 187.4C122.727 187.4 122.723 187.4 122.719 187.4C122.715 187.4 122.711 187.4 122.707 187.4C122.703 187.4 122.699 187.4 122.695 187.4C122.691 187.4 122.687 187.4 122.683 187.4C122.68 187.4 122.676 187.4 122.672 187.4C122.668 187.4 122.664 187.4 122.66 187.4C122.656 187.4 122.652 187.4 122.648 187.4C122.644 187.4 122.64 187.4 122.636 187.4C122.633 187.4 122.629 187.4 122.625 187.4C122.621 187.4 122.617 187.4 122.613 187.4C122.609 187.4 122.605 187.4 122.601 187.4C122.597 187.4 122.593 187.4 122.589 187.4C122.586 187.4 122.582 187.4 122.578 187.4C122.574 187.4 122.57 187.4 122.566 187.4C122.562 187.4 122.558 187.4 122.554 187.4C122.55 187.4 122.546 187.4 122.542 187.4C122.539 187.4 122.535 187.4 122.531 187.4C122.527 187.4 122.523 187.4 122.519 187.4C122.515 187.4 122.511 187.4 122.507 187.4C122.503 187.4 122.499 187.4 122.496 187.4C122.492 187.4 122.488 187.4 122.484 187.4C122.48 187.4 122.476 187.4 122.472 187.4C122.468 187.4 122.464 187.4 122.46 187.4C122.456 187.4 122.453 187.4 122.449 187.4C122.445 187.4 122.441 187.4 122.437 187.4C122.433 187.4 122.429 187.4 122.425 187.4C122.421 187.4 122.417 187.4 122.413 187.4C122.409 187.4 122.406 187.4 122.402 187.4C122.398 187.4 122.394 187.4 122.39 187.4C122.386 187.4 122.382 187.4 122.378 187.4C122.374 187.4 122.37 187.4 122.366 187.4C122.363 187.4 122.359 187.4 122.355 187.4C122.351 187.4 122.347 187.4 122.343 187.4C122.339 187.4 122.335 187.4 122.331 187.4C122.327 187.4 122.323 187.4 122.32 187.4C122.316 187.4 122.312 187.4 122.308 187.4C122.304 187.4 122.3 187.4 122.296 187.4C122.292 187.4 122.288 187.4 122.284 187.4C122.28 187.4 122.277 187.4 122.273 187.4C122.269 187.4 122.265 187.4 122.261 187.4C122.257 187.4 122.253 187.4 122.249 187.4C122.245 187.4 122.241 187.4 122.238 187.4C122.234 187.4 122.23 187.4 122.226 187.4C122.222 187.4 122.218 187.4 122.214 187.4V188.4ZM128.314 188.4C131.991 188.4 134.888 188.233 136.994 187.894L136.834 186.906C134.807 187.233 131.971 187.4 128.314 187.4V188.4ZM136.994 187.894C139.105 187.553 140.703 186.893 141.68 185.84L140.948 185.16C140.192 185.974 138.856 186.58 136.834 186.906L136.994 187.894ZM141.692 185.827C142.667 184.703 143.114 183.099 143.114 181.1H142.114C142.114 182.967 141.695 184.297 140.936 185.173L141.692 185.827ZM143.114 181.1C143.114 178.616 142.386 176.794 140.762 175.866L140.266 176.734C141.442 177.406 142.114 178.784 142.114 181.1H143.114ZM140.762 175.866C139.304 175.033 137.386 174.352 135.025 173.813L134.803 174.787C137.109 175.315 138.924 175.967 140.266 176.734L140.762 175.866ZM135.025 173.813L121.025 170.613L120.803 171.587L134.803 174.787L135.025 173.813ZM121.035 170.615C118.402 169.957 116.328 169.108 114.791 168.084L114.237 168.916C115.9 170.025 118.092 170.91 120.793 171.585L121.035 170.615ZM114.803 168.092C113.276 167.01 112.17 165.649 111.475 164.005L110.554 164.395C111.325 166.217 112.553 167.723 114.225 168.908L114.803 168.092ZM111.477 164.011C110.775 162.289 110.414 160.124 110.414 157.5H109.414C109.414 160.209 109.786 162.511 110.551 164.389L111.477 164.011ZM110.414 157.5C110.414 153.744 111.076 150.997 112.326 149.184L111.502 148.616C110.086 150.67 109.414 153.656 109.414 157.5H110.414ZM112.326 149.184C113.574 147.374 115.522 146.131 118.23 145.486L117.998 144.514C115.106 145.202 112.921 146.559 111.502 148.616L112.326 149.184ZM118.23 145.486C120.974 144.833 124.529 144.534 128.906 144.6L128.922 143.6C124.5 143.533 120.854 143.834 117.998 144.514L118.23 145.486ZM173.695 130.9H174.195V130.4H173.695V130.9ZM175.195 185.6L174.842 185.954L175.195 185.6ZM187.695 187.1L188.189 187.024L188.124 186.6H187.695V187.1ZM188.695 193.6L188.817 194.085L189.259 193.975L189.19 193.524L188.695 193.6ZM184.995 194.3L184.925 193.805L184.995 194.3ZM180.895 194.7L180.87 194.201L180.858 194.201L180.846 194.202L180.895 194.7ZM168.395 191.5L168.031 191.843L168.031 191.843L168.395 191.5ZM165.195 130.9V130.4H164.695V130.9H165.195ZM189.195 145.3H189.695V144.8H189.195V145.3ZM189.195 152V152.5H189.695V152H189.195ZM156.395 152H155.895V152.5H156.395V152ZM156.395 145.8L156.369 145.301L155.895 145.325V145.8H156.395ZM165.995 145.3V144.8H165.982L165.969 144.801L165.995 145.3ZM173.195 130.9V180.6H174.195V130.9H173.195ZM173.195 180.6C173.195 182.984 173.703 184.815 174.842 185.954L175.549 185.246C174.688 184.385 174.195 182.883 174.195 180.6H173.195ZM174.842 185.954C175.983 187.095 177.849 187.6 180.295 187.6V186.6C177.941 186.6 176.408 186.105 175.549 185.246L174.842 185.954ZM180.295 187.6H187.695V186.6H180.295V187.6ZM187.201 187.176L188.201 193.676L189.19 193.524L188.189 187.024L187.201 187.176ZM188.574 193.115C187.528 193.376 186.312 193.607 184.925 193.805L185.066 194.795C186.479 194.593 187.729 194.357 188.817 194.085L188.574 193.115ZM184.925 193.805C183.539 194.003 182.188 194.135 180.87 194.201L180.92 195.199C182.27 195.132 183.652 194.997 185.066 194.795L184.925 193.805ZM180.846 194.202C179.519 194.335 178.471 194.4 177.695 194.4V195.4C178.519 195.4 179.605 195.332 180.945 195.198L180.846 194.202ZM177.695 194.4C173.722 194.4 170.772 193.295 168.759 191.157L168.031 191.843C170.286 194.238 173.535 195.4 177.695 195.4V194.4ZM168.759 191.157C166.741 189.013 165.695 185.887 165.695 181.7H164.695C164.695 186.046 165.783 189.453 168.031 191.843L168.759 191.157ZM165.695 181.7V130.9H164.695V181.7H165.695ZM165.195 131.4H173.695V130.4H165.195V131.4ZM188.695 145.3V152H189.695V145.3H188.695ZM189.195 151.5H156.395V152.5H189.195V151.5ZM156.895 152V145.8H155.895V152H156.895ZM156.421 146.299L166.021 145.799L165.969 144.801L156.369 145.301L156.421 146.299ZM165.995 145.8H189.195V144.8H165.995V145.8ZM231.581 146.6L231.358 147.047L231.361 147.049L231.581 146.6ZM238.881 154.8L238.415 154.98L238.416 154.983L238.881 154.8ZM238.881 184.7L239.347 184.883L239.348 184.88L238.881 184.7ZM231.581 192.8L231.361 192.351L231.358 192.353L231.581 192.8ZM204.781 192.8L204.558 193.247L204.561 193.249L204.781 192.8ZM197.481 184.7L197.015 184.88L197.019 184.89L197.481 184.7ZM197.481 154.8L197.018 154.613L197.016 154.617L197.481 154.8ZM204.781 146.6L204.561 146.151L204.558 146.153L204.781 146.6ZM209.781 153L210.017 153.441L210.022 153.438L209.781 153ZM205.481 158.6L205.957 158.755L205.957 158.755L205.481 158.6ZM205.481 180.8L205.006 180.955L205.006 180.955L205.481 180.8ZM209.781 186.5L209.535 186.935L209.543 186.94L209.552 186.944L209.781 186.5ZM226.581 186.5L226.811 186.944L226.822 186.938L226.581 186.5ZM230.981 180.8L231.457 180.955L231.457 180.955L230.981 180.8ZM230.981 158.6L231.457 158.445L231.457 158.445L230.981 158.6ZM226.581 153L226.341 153.439L226.352 153.444L226.581 153ZM218.181 144.6C223.739 144.6 228.12 145.428 231.358 147.047L231.805 146.153C228.376 144.438 223.823 143.6 218.181 143.6V144.6ZM231.361 147.049C234.639 148.656 236.99 151.288 238.415 154.98L239.348 154.62C237.839 150.712 235.323 147.878 231.801 146.151L231.361 147.049ZM238.416 154.983C239.851 158.635 240.581 163.532 240.581 169.7H241.581C241.581 163.468 240.845 158.432 239.347 154.617L238.416 154.983ZM240.581 169.7C240.581 175.867 239.851 180.799 238.415 184.52L239.348 184.88C240.845 181.001 241.581 175.933 241.581 169.7H240.581ZM238.416 184.517C236.992 188.142 234.642 190.743 231.361 192.351L231.801 193.249C235.321 191.524 237.837 188.725 239.347 184.883L238.416 184.517ZM231.358 192.353C228.12 193.972 223.739 194.8 218.181 194.8V195.8C223.823 195.8 228.376 194.962 231.805 193.247L231.358 192.353ZM218.181 194.8C212.692 194.8 208.309 193.972 205.001 192.351L204.561 193.249C208.054 194.961 212.604 195.8 218.181 195.8V194.8ZM205.005 192.353C201.789 190.745 199.435 188.142 197.944 184.51L197.019 184.89C198.594 188.725 201.107 191.522 204.558 193.247L205.005 192.353ZM197.948 184.52C196.512 180.799 195.781 175.867 195.781 169.7H194.781C194.781 175.933 195.518 181.001 197.015 184.88L197.948 184.52ZM195.781 169.7C195.781 163.532 196.512 158.635 197.947 154.983L197.016 154.617C195.517 158.432 194.781 163.468 194.781 169.7H195.781ZM197.945 154.987C199.438 151.288 201.792 148.654 205.005 147.047L204.558 146.153C201.104 147.88 198.592 150.712 197.018 154.613L197.945 154.987ZM205.001 147.049C208.309 145.428 212.692 144.6 218.181 144.6V143.6C212.604 143.6 208.054 144.439 204.561 146.151L205.001 147.049ZM218.181 150.8C214.603 150.8 211.709 151.373 209.541 152.562L210.022 153.438C211.987 152.361 214.693 151.8 218.181 151.8V150.8ZM209.546 152.559C207.406 153.7 205.902 155.686 205.006 158.445L205.957 158.755C206.793 156.18 208.156 154.433 210.017 153.441L209.546 152.559ZM205.006 158.445C204.115 161.185 203.681 164.945 203.681 169.7H204.681C204.681 164.988 205.114 161.349 205.957 158.755L205.006 158.445ZM203.681 169.7C203.681 174.455 204.115 178.215 205.006 180.955L205.957 180.645C205.114 178.051 204.681 174.412 204.681 169.7H203.681ZM205.006 180.955C205.902 183.713 207.403 185.727 209.535 186.935L210.028 186.065C208.159 185.006 206.794 183.221 205.957 180.645L205.006 180.955ZM209.552 186.944C211.717 188.062 214.606 188.6 218.181 188.6V187.6C214.69 187.6 211.979 187.072 210.011 186.056L209.552 186.944ZM218.181 188.6C221.757 188.6 224.646 188.062 226.811 186.944L226.352 186.056C224.384 187.072 221.673 187.6 218.181 187.6V188.6ZM226.822 186.938C229.021 185.733 230.559 183.718 231.457 180.955L230.506 180.645C229.67 183.215 228.275 185.001 226.341 186.062L226.822 186.938ZM231.457 180.955C232.347 178.215 232.781 174.455 232.781 169.7H231.781C231.781 174.412 231.349 178.051 230.506 180.645L231.457 180.955ZM232.781 169.7C232.781 164.945 232.347 161.185 231.457 158.445L230.506 158.755C231.349 161.349 231.781 164.988 231.781 169.7H232.781ZM231.457 158.445C230.558 155.681 229.018 153.695 226.811 152.556L226.352 153.444C228.278 154.439 229.671 156.186 230.506 158.755L231.457 158.445ZM226.822 152.562C224.654 151.373 221.76 150.8 218.181 150.8V151.8C221.669 151.8 224.376 152.361 226.341 153.438L226.822 152.562ZM259.017 145.3L259.514 145.241L259.462 144.8H259.017V145.3ZM260.117 154.6L259.621 154.659L259.632 154.752L259.676 154.835L260.117 154.6ZM260.917 156.1H261.417V155.975L261.358 155.865L260.917 156.1ZM260.917 194V194.5H261.417V194H260.917ZM252.417 194H251.917V194.5H252.417V194ZM252.417 145.3V144.8H251.917V145.3H252.417ZM282.917 144.1L283.413 144.162L283.484 143.6H282.917V144.1ZM281.917 152.1V152.6H282.359L282.413 152.162L281.917 152.1ZM270.517 153.9L270.701 154.365L270.71 154.361L270.517 153.9ZM260.017 158.8L259.521 158.865L259.615 159.57L260.247 159.244L260.017 158.8ZM259.317 153.5L259.001 153.112L258.785 153.289L258.821 153.565L259.317 153.5ZM270.117 146.6L269.91 146.145L269.907 146.146L270.117 146.6ZM258.521 145.359L259.621 154.659L260.614 154.541L259.514 145.241L258.521 145.359ZM259.676 154.835L260.476 156.335L261.358 155.865L260.558 154.365L259.676 154.835ZM260.417 156.1V194H261.417V156.1H260.417ZM260.917 193.5H252.417V194.5H260.917V193.5ZM252.917 194V145.3H251.917V194H252.917ZM252.417 145.8H259.017V144.8H252.417V145.8ZM282.421 144.038L281.421 152.038L282.413 152.162L283.413 144.162L282.421 144.038ZM281.917 151.6H279.117V152.6H281.917V151.6ZM279.117 151.6C276.179 151.6 273.247 152.215 270.324 153.439L270.71 154.361C273.521 153.185 276.322 152.6 279.117 152.6V151.6ZM270.333 153.435C267.446 154.577 263.929 156.218 259.788 158.356L260.247 159.244C264.372 157.115 267.856 155.49 270.701 154.365L270.333 153.435ZM260.513 158.735L259.813 153.435L258.821 153.565L259.521 158.865L260.513 158.735ZM259.633 153.888C263.206 150.976 266.771 148.7 270.327 147.054L269.907 146.146C266.263 147.833 262.628 150.157 259.001 153.112L259.633 153.888ZM270.324 147.055C273.938 145.413 277.401 144.6 280.717 144.6V143.6C277.234 143.6 273.63 144.454 269.91 146.145L270.324 147.055ZM280.717 144.6H282.917V143.6H280.717V144.6ZM325.184 148.1L324.868 148.487L324.872 148.49L325.184 148.1ZM330.184 160H329.684L329.684 160.008L330.184 160ZM327.484 170.2L327.879 170.507L327.883 170.502L327.484 170.2ZM290.184 173.8H289.684V174.3H290.184V173.8ZM290.184 167.2V166.7H289.684V167.2H290.184ZM320.684 165L321.14 165.207L321.143 165.199L320.684 165ZM321.684 160H322.184L322.184 159.989L321.684 160ZM318.884 153.3L318.587 153.702L318.587 153.702L318.884 153.3ZM301.284 152.9L301.508 153.347L301.514 153.344L301.284 152.9ZM296.984 158.3L296.51 158.142L296.508 158.149L296.984 158.3ZM297.284 180.9L296.815 181.072L296.819 181.082L297.284 180.9ZM302.284 186.5L302.083 186.957L302.083 186.957L302.284 186.5ZM319.784 187.7L319.817 188.199L319.827 188.198L319.784 187.7ZM328.184 186.8L328.678 186.722L328.602 186.239L328.117 186.305L328.184 186.8ZM329.084 192.5L329.267 192.966L329.641 192.819L329.578 192.422L329.084 192.5ZM323.384 194L323.297 193.508L323.295 193.508L323.384 194ZM316.484 194.9L316.443 194.402L316.442 194.402L316.484 194.9ZM296.684 192.7L296.457 193.146L296.464 193.149L296.684 192.7ZM289.184 184.5L288.721 184.687L288.725 184.697L289.184 184.5ZM289.184 154.4L288.725 154.203L288.723 154.207L289.184 154.4ZM296.484 146.5L296.697 146.953L296.701 146.951L296.484 146.5ZM309.284 144.6C316.579 144.6 321.736 145.931 324.868 148.487L325.501 147.713C322.099 144.936 316.656 143.6 309.284 143.6V144.6ZM324.872 148.49C328.059 151.04 329.684 154.846 329.684 160H330.684C330.684 154.621 328.976 150.493 325.497 147.71L324.872 148.49ZM329.684 160.008C329.75 164.273 328.863 167.55 327.086 169.898L327.883 170.502C329.839 167.917 330.752 164.393 330.684 159.992L329.684 160.008ZM327.09 169.893C325.348 172.133 322.553 173.3 318.584 173.3V174.3C322.749 174.3 325.888 173.067 327.879 170.507L327.09 169.893ZM318.584 173.3H290.184V174.3H318.584V173.3ZM290.684 173.8V167.2H289.684V173.8H290.684ZM290.184 167.7H316.384V166.7H290.184V167.7ZM316.384 167.7C318.696 167.7 320.362 166.918 321.14 165.207L320.229 164.793C319.674 166.015 318.473 166.7 316.384 166.7V167.7ZM321.143 165.199C321.839 163.598 322.184 161.863 322.184 160H321.184C321.184 161.737 320.863 163.335 320.226 164.801L321.143 165.199ZM322.184 159.989C322.116 156.767 321.151 154.357 319.182 152.898L318.587 153.702C320.218 154.91 321.12 156.967 321.184 160.011L322.184 159.989ZM319.182 152.898C317.246 151.464 314.04 150.8 309.684 150.8V151.8C313.996 151.8 316.922 152.469 318.587 153.702L319.182 152.898ZM309.684 150.8C306.109 150.8 303.22 151.338 301.055 152.456L301.514 153.344C303.482 152.328 306.193 151.8 309.684 151.8V150.8ZM301.061 152.453C298.916 153.525 297.409 155.446 296.51 158.142L297.459 158.458C298.294 155.954 299.652 154.275 301.508 153.347L301.061 152.453ZM296.508 158.149C295.685 160.754 295.284 164.38 295.284 169H296.284C296.284 164.42 296.684 160.912 297.461 158.451L296.508 158.149ZM295.284 169C295.284 174.22 295.785 178.256 296.815 181.072L297.754 180.728C296.784 178.077 296.284 174.18 296.284 169H295.284ZM296.819 181.082C297.924 183.914 299.673 185.894 302.083 186.957L302.486 186.043C300.363 185.106 298.778 183.353 297.75 180.718L296.819 181.082ZM302.083 186.957C304.437 187.996 307.513 188.5 311.284 188.5V187.5C307.589 187.5 304.665 187.004 302.486 186.043L302.083 186.957ZM311.284 188.5C313.897 188.5 316.741 188.4 319.817 188.199L319.752 187.201C316.694 187.4 313.872 187.5 311.284 187.5V188.5ZM319.827 188.198C322.966 187.931 325.775 187.63 328.251 187.295L328.117 186.305C325.661 186.636 322.869 186.936 319.742 187.202L319.827 188.198ZM327.69 186.878L328.59 192.578L329.578 192.422L328.678 186.722L327.69 186.878ZM328.902 192.034C327.409 192.619 325.543 193.111 323.297 193.508L323.471 194.492C325.759 194.089 327.693 193.581 329.267 192.966L328.902 192.034ZM323.295 193.508C321.112 193.905 318.828 194.203 316.443 194.402L316.526 195.398C318.941 195.197 321.257 194.895 323.474 194.492L323.295 193.508ZM316.442 194.402C314.119 194.601 312.034 194.7 310.184 194.7V195.7C312.068 195.7 314.183 195.599 316.527 195.398L316.442 194.402ZM310.184 194.7C304.627 194.7 300.211 193.872 296.904 192.251L296.464 193.149C299.958 194.861 304.542 195.7 310.184 195.7V194.7ZM296.911 192.255C293.623 190.578 291.201 187.936 289.644 184.303L288.725 184.697C290.368 188.53 292.946 191.355 296.457 193.145L296.911 192.255ZM289.648 184.313C288.148 180.595 287.384 175.666 287.384 169.5H286.384C286.384 175.734 287.154 180.805 288.721 184.687L289.648 184.313ZM287.384 169.5C287.384 163.131 288.149 158.172 289.646 154.593L288.723 154.207C287.153 157.961 286.384 163.069 286.384 169.5H287.384ZM289.644 154.597C291.202 150.961 293.555 148.427 296.697 146.953L296.272 146.047C292.88 147.639 290.367 150.372 288.725 154.203L289.644 154.597ZM296.701 146.951C299.945 145.394 304.131 144.6 309.284 144.6V143.6C304.038 143.6 299.691 144.406 296.268 146.049L296.701 146.951Z" fill="#0A14F1" fill-opacity="0.98"/>
</g>
<defs>
<filter id="filter0_f_1311_45" x="0.799988" y="0.0999756" width="336.334" height="199.2" filterUnits="userSpaceOnUse" color-interpolation-filters="sRGB">
<feFlood flood-opacity="0" result="BackgroundImageFix"/>
<feBlend mode="normal" in="SourceGraphic" in2="BackgroundImageFix" result="shape"/>
<feGaussianBlur stdDeviation="2" result="effect1_foregroundBlur_1311_45"/>
</filter>
</defs>
</svg>
