<svg width="348" height="183" viewBox="0 0 348 183" fill="none" xmlns="http://www.w3.org/2000/svg">
<path d="M50.11 20.355L34.055 64.245C33.7383 65.0683 33.2317 65.7333 32.535 66.24C31.9017 66.7467 31.11 67 30.16 67H20.09C19.2033 67 18.4117 66.7467 17.715 66.24C17.0183 65.7333 16.5117 65.0683 16.195 64.245L0.14 20.355H12.395L22.18 50.945C22.6233 52.3383 23.035 53.7633 23.415 55.22C23.795 56.6133 24.1433 57.975 24.46 59.305H25.695C26.1383 57.9117 26.55 56.5183 26.93 55.125C27.3733 53.7317 27.785 52.3383 28.165 50.945L37.95 20.355H50.11ZM79.272 19.215C86.8087 19.215 92.2237 20.545 95.517 23.205C98.8104 25.8017 100.489 29.665 100.552 34.795C100.615 39.0383 99.602 42.2683 97.512 44.485C95.4854 46.6383 92.097 47.715 87.347 47.715H60.747V40.59H84.212C86.3654 40.59 87.727 40.02 88.297 38.88C88.9304 37.74 89.247 36.3467 89.247 34.7C89.1837 32.1033 88.4237 30.2983 86.967 29.285C85.5737 28.2717 83.167 27.765 79.747 27.765C76.7704 27.765 74.4587 28.1767 72.812 29C71.1654 29.8233 69.9937 31.3117 69.297 33.465C68.6637 35.6183 68.347 38.7217 68.347 42.775C68.347 47.0817 68.7587 50.4067 69.582 52.75C70.4054 55.0933 71.767 56.7083 73.667 57.595C75.567 58.4183 78.1004 58.83 81.267 58.83C83.6104 58.83 86.302 58.735 89.342 58.545C92.4454 58.355 95.422 58.1017 98.272 57.785L99.412 65.1C97.702 65.7967 95.7387 66.3667 93.522 66.81C91.3054 67.2533 88.9937 67.57 86.587 67.76C84.2437 68.0133 82.027 68.14 79.937 68.14C74.237 68.14 69.6454 67.3167 66.162 65.67C62.742 63.96 60.2404 61.3 58.657 57.69C57.137 54.08 56.377 49.425 56.377 43.725C56.377 37.5817 57.137 32.7367 58.657 29.19C60.2404 25.58 62.7104 23.015 66.067 21.495C69.487 19.975 73.8887 19.215 79.272 19.215ZM121.239 20.355L122.759 29.475L123.804 30.805V67H112.309V20.355H121.239ZM144.039 19.215L142.899 29.855H139.574C137.104 29.855 134.602 30.2667 132.069 31.09C129.536 31.9133 126.369 33.1483 122.569 34.795L121.809 28.05C125.102 25.2633 128.459 23.11 131.879 21.59C135.299 20.0067 138.592 19.215 141.759 19.215H144.039ZM165.036 20.355V67H153.636V20.355H165.036ZM161.901 0.119995C164.181 0.119995 165.321 1.26 165.321 3.54V8.86C165.321 11.14 164.181 12.28 161.901 12.28H156.771C154.491 12.28 153.351 11.14 153.351 8.86V3.54C153.351 1.26 154.491 0.119995 156.771 0.119995H161.901ZM193.884 1.26C197.114 1.26 200.376 1.29166 203.669 1.355C207.026 1.355 210.319 1.41833 213.549 1.545C216.843 1.60833 219.883 1.79833 222.669 2.115L222.099 10.855H197.969C196.069 10.855 194.644 11.2983 193.694 12.185C192.744 13.0717 192.269 14.465 192.269 16.365V67H180.394V13.99C180.394 10 181.629 6.89666 184.099 4.68C186.569 2.4 189.831 1.26 193.884 1.26ZM182.009 29.38H218.489V38.12H182.009V29.38ZM282.693 1.44999L260.558 45.53H249.538L227.308 1.44999H239.753L251.913 27.1C252.483 28.3033 252.958 29.6017 253.338 30.995C253.781 32.3883 254.225 33.7183 254.668 34.985H255.428C255.808 33.7183 256.22 32.3883 256.663 30.995C257.106 29.6017 257.581 28.3033 258.088 27.1L270.248 1.44999H282.693ZM260.938 38.025V67H249.063V38.025H260.938ZM316.679 0.594994C321.619 0.594994 325.799 1.16499 329.219 2.30499C332.703 3.38166 335.489 5.21833 337.579 7.815C339.733 10.3483 341.284 13.8 342.234 18.17C343.184 22.4767 343.659 27.8283 343.659 34.225C343.659 40.6217 343.184 46.005 342.234 50.375C341.284 54.6817 339.733 58.1333 337.579 60.73C335.489 63.2633 332.703 65.1 329.219 66.24C325.799 67.3167 321.619 67.855 316.679 67.855C311.929 67.855 307.528 67.76 303.474 67.57C299.421 67.4433 295.589 67.2533 291.979 67L296.919 57.88C299.453 58.0067 302.366 58.1333 305.659 58.26C308.953 58.3233 312.626 58.355 316.679 58.355C320.353 58.355 323.234 57.6583 325.324 56.265C327.478 54.8083 328.998 52.3383 329.884 48.855C330.771 45.3083 331.214 40.4317 331.214 34.225C331.214 28.0183 330.771 23.1733 329.884 19.69C328.998 16.1433 327.478 13.6417 325.324 12.185C323.234 10.7283 320.353 10 316.679 10C312.753 10 309.238 10.0317 306.134 10.095C303.094 10.1583 300.118 10.19 297.204 10.19L291.979 1.44999C295.589 1.19666 299.389 1.00667 303.379 0.879996C307.433 0.689995 311.866 0.594994 316.679 0.594994ZM303.854 1.44999V67H291.979V1.44999H303.854ZM135.162 133.215C137.315 133.215 139.627 133.278 142.097 133.405C144.63 133.532 147.1 133.722 149.507 133.975C151.913 134.165 154.067 134.45 155.967 134.83L155.207 142.335C152.167 142.272 149.127 142.208 146.087 142.145C143.11 142.018 140.165 141.955 137.252 141.955C134.655 141.955 132.597 142.018 131.077 142.145C129.62 142.272 128.575 142.652 127.942 143.285C127.372 143.918 127.087 144.995 127.087 146.515C127.087 148.352 127.593 149.587 128.607 150.22C129.62 150.79 131.267 151.36 133.547 151.93L146.277 154.875C150.077 155.825 152.895 157.282 154.732 159.245C156.568 161.145 157.487 164.09 157.487 168.08C157.487 171.943 156.758 174.888 155.302 176.915C153.908 178.878 151.66 180.24 148.557 181C145.517 181.697 141.622 182.045 136.872 182.045C135.035 182.045 132.312 181.95 128.702 181.76C125.092 181.633 121.133 181.222 116.827 180.525L117.587 173.02C118.853 173.02 120.342 173.052 122.052 173.115C123.825 173.178 125.693 173.21 127.657 173.21C129.683 173.21 131.742 173.21 133.832 173.21C137.188 173.21 139.753 173.115 141.527 172.925C143.363 172.672 144.63 172.197 145.327 171.5C146.023 170.74 146.372 169.663 146.372 168.27C146.372 166.497 145.77 165.325 144.567 164.755C143.427 164.122 141.717 163.52 139.437 162.95L126.992 159.91C124.142 159.15 121.925 158.2 120.342 157.06C118.758 155.857 117.618 154.4 116.922 152.69C116.225 150.917 115.877 148.763 115.877 146.23C115.877 142.81 116.51 140.15 117.777 138.25C119.107 136.35 121.165 135.02 123.952 134.26C126.802 133.5 130.538 133.152 135.162 133.215ZM184.703 121.055V166.94C184.703 168.903 185.114 170.297 185.938 171.12C186.824 171.943 188.313 172.355 190.403 172.355H196.863L198.098 180.43C197.021 180.747 195.723 181.032 194.203 181.285C192.683 181.538 191.194 181.697 189.738 181.76C188.281 181.887 187.046 181.95 186.033 181.95C181.979 181.95 178.813 180.873 176.533 178.72C174.316 176.503 173.208 173.337 173.208 169.22V121.055H184.703ZM198.573 134.355V142.335H164.943V134.83L174.063 134.355H198.573ZM229.587 133.215C235.287 133.215 239.815 134.007 243.172 135.59C246.592 137.173 249.03 139.77 250.487 143.38C252.007 146.99 252.767 151.772 252.767 157.725C252.767 163.678 252.007 168.46 250.487 172.07C249.03 175.617 246.592 178.213 243.172 179.86C239.815 181.443 235.287 182.235 229.587 182.235C224.013 182.235 219.517 181.443 216.097 179.86C212.74 178.213 210.302 175.617 208.782 172.07C207.262 168.46 206.502 163.678 206.502 157.725C206.502 151.772 207.262 146.99 208.782 143.38C210.302 139.77 212.74 137.173 216.097 135.59C219.517 134.007 224.013 133.215 229.587 133.215ZM229.587 141.955C226.8 141.955 224.583 142.43 222.937 143.38C221.353 144.267 220.213 145.85 219.517 148.13C218.82 150.41 218.472 153.608 218.472 157.725C218.472 161.842 218.82 165.04 219.517 167.32C220.213 169.6 221.353 171.183 222.937 172.07C224.583 172.957 226.8 173.4 229.587 173.4C232.437 173.4 234.685 172.957 236.332 172.07C237.978 171.183 239.118 169.6 239.752 167.32C240.448 165.04 240.797 161.842 240.797 157.725C240.797 153.608 240.448 150.41 239.752 148.13C239.118 145.85 237.978 144.267 236.332 143.38C234.685 142.43 232.437 141.955 229.587 141.955ZM273.959 134.355L275.479 143.475L276.524 144.805V181H265.029V134.355H273.959ZM296.759 133.215L295.619 143.855H292.294C289.824 143.855 287.322 144.267 284.789 145.09C282.256 145.913 279.089 147.148 275.289 148.795L274.529 142.05C277.822 139.263 281.179 137.11 284.599 135.59C288.019 134.007 291.312 133.215 294.479 133.215H296.759ZM325.853 133.215C333.389 133.215 338.804 134.545 342.098 137.205C345.391 139.802 347.069 143.665 347.133 148.795C347.196 153.038 346.183 156.268 344.093 158.485C342.066 160.638 338.678 161.715 333.928 161.715H307.328V154.59H330.793C332.946 154.59 334.308 154.02 334.878 152.88C335.511 151.74 335.828 150.347 335.828 148.7C335.764 146.103 335.004 144.298 333.548 143.285C332.154 142.272 329.748 141.765 326.328 141.765C323.351 141.765 321.039 142.177 319.393 143C317.746 143.823 316.574 145.312 315.878 147.465C315.244 149.618 314.928 152.722 314.928 156.775C314.928 161.082 315.339 164.407 316.163 166.75C316.986 169.093 318.348 170.708 320.248 171.595C322.148 172.418 324.681 172.83 327.848 172.83C330.191 172.83 332.883 172.735 335.923 172.545C339.026 172.355 342.003 172.102 344.853 171.785L345.993 179.1C344.283 179.797 342.319 180.367 340.103 180.81C337.886 181.253 335.574 181.57 333.168 181.76C330.824 182.013 328.608 182.14 326.518 182.14C320.818 182.14 316.226 181.317 312.743 179.67C309.323 177.96 306.821 175.3 305.238 171.69C303.718 168.08 302.958 163.425 302.958 157.725C302.958 151.582 303.718 146.737 305.238 143.19C306.821 139.58 309.291 137.015 312.648 135.495C316.068 133.975 320.469 133.215 325.853 133.215Z" fill="white" fill-opacity="0.98"/>
<path d="M100.65 167.985C102.233 167.985 103.31 168.302 103.88 168.935C104.513 169.505 104.83 170.55 104.83 172.07V176.82C104.83 178.403 104.513 179.512 103.88 180.145C103.31 180.715 102.233 181 100.65 181H97.515C95.995 181 94.9183 180.715 94.285 180.145C93.6517 179.512 93.335 178.403 93.335 176.82V172.07C93.335 170.55 93.6517 169.505 94.285 168.935C94.9183 168.302 95.995 167.985 97.515 167.985H100.65Z" fill="#4E57FA"/>
</svg>
