<?xml version="1.0" standalone="no"?>
<!DOCTYPE svg PUBLIC "-//W3C//DTD SVG 20010904//EN"
 "http://www.w3.org/TR/2001/REC-SVG-20010904/DTD/svg10.dtd">
<svg version="1.0" xmlns="http://www.w3.org/2000/svg"
 width="256.000000" height="256.000000" viewBox="0 0 256.000000 256.000000"
 preserveAspectRatio="xMidYMid meet">

<g transform="translate(0.000000,256.000000) scale(0.100000,-0.100000)"
fill="#000000" stroke="none">
<path d="M1039 1736 c-360 -242 -633 -385 -837 -436 -57 -14 -114 -68 -143
-133 -20 -45 -24 -71 -27 -198 -4 -145 -4 -145 23 -177 14 -17 43 -36 63 -42
21 -5 144 -10 278 -10 265 0 283 4 270 53 l-6 27 -260 0 c-313 0 -303 -4 -298
113 l3 72 279 5 c246 4 280 7 289 22 8 12 7 21 -2 32 -12 14 -49 16 -282 16
-300 0 -287 -4 -249 70 25 50 50 66 136 90 38 10 102 33 143 50 l73 32 32 -30
c68 -65 175 -97 199 -60 15 23 -11 51 -61 66 -20 7 -50 22 -66 35 l-30 24 74
41 73 40 29 -39 c33 -46 52 -56 73 -39 21 17 18 50 -5 80 -11 14 -20 30 -19
35 0 6 20 23 46 38 36 22 48 25 55 15 4 -7 17 -27 28 -45 22 -34 42 -45 65
-37 30 12 28 45 -5 92 -18 26 -29 47 -24 49 5 2 29 17 54 33 l45 30 20 -27
c50 -69 60 -76 83 -64 30 16 28 44 -8 96 l-30 43 49 31 c52 34 92 39 111 16 7
-8 25 -41 40 -72 34 -72 64 -102 88 -87 29 18 24 46 -20 129 -50 93 -89 125
-153 125 -38 0 -61 -13 -196 -104z"/>
<path d="M1743 1734 c-348 -233 -615 -375 -788 -420 -84 -22 -126 -48 -163
-102 -45 -66 -65 -162 -60 -289 3 -92 6 -105 28 -129 52 -56 25 -54 867 -54
500 0 791 4 815 10 20 6 48 24 62 41 l26 31 0 276 c0 257 -2 279 -20 309 -23
38 -39 47 -109 62 -129 27 -245 121 -308 249 -45 90 -84 122 -149 122 -37 0
-61 -13 -201 -106z m231 20 c8 -3 32 -40 52 -81 68 -137 200 -244 342 -277 33
-7 65 -17 71 -21 7 -4 11 -92 11 -270 0 -251 -1 -265 -19 -275 -13 -7 -282
-10 -804 -10 -909 0 -820 -12 -815 111 l3 74 770 5 770 5 0 30 0 30 -164 3
-165 3 -55 57 c-113 115 -226 153 -447 149 -118 -2 -144 1 -172 16 -35 19 -67
16 -76 -9 -10 -25 11 -50 56 -70 36 -15 71 -18 213 -19 143 -1 177 -4 215 -20
62 -26 150 -84 150 -99 0 -9 -1078 -7 -1084 2 -8 13 29 85 55 109 13 12 52 29
87 38 81 20 242 89 360 153 l92 50 27 -39 c33 -45 47 -53 74 -39 26 14 24 38
-6 82 l-25 36 50 31 49 30 30 -43 c38 -54 58 -63 85 -37 20 20 20 20 -13 72
-17 28 -30 53 -29 54 28 20 98 65 101 65 3 0 18 -20 34 -45 32 -51 46 -59 74
-45 26 14 24 38 -6 82 -35 51 -34 53 10 87 39 30 68 37 99 25z"/>
</g>
</svg>
