<svg width="291" height="103" viewBox="0 0 291 103" fill="none" xmlns="http://www.w3.org/2000/svg">
<path d="M42.3773 17.5727L28.8066 54.6713C28.5389 55.3672 28.1106 55.9293 27.5218 56.3576C26.9864 56.7859 26.3173 57 25.5143 57H17.0025C16.253 57 15.5838 56.7859 14.995 56.3576C14.4061 55.9293 13.9778 55.3672 13.7102 54.6713L0.139458 17.5727H10.4982L18.7691 43.4293C19.1438 44.607 19.4918 45.8115 19.813 47.0428C20.1342 48.2205 20.4286 49.3715 20.6963 50.4957H21.7402C22.1149 49.318 22.4629 48.1402 22.7841 46.9625C23.1588 45.7848 23.5068 44.607 23.828 43.4293L32.0989 17.5727H42.3773ZM67.0268 16.6091C73.3973 16.6091 77.9744 17.7333 80.7581 19.9817C83.5419 22.1766 84.9605 25.4421 85.014 29.7783C85.0676 33.365 84.211 36.0952 82.4444 37.9689C80.7314 39.789 77.8673 40.6991 73.8523 40.6991H51.3683V34.6766H71.2024C73.0226 34.6766 74.1735 34.1948 74.6553 33.2312C75.1907 32.2676 75.4583 31.0899 75.4583 29.698C75.4048 27.5031 74.7624 25.9774 73.5311 25.1209C72.3534 24.2644 70.3191 23.8361 67.4283 23.8361C64.9123 23.8361 62.9583 24.1841 61.5664 24.88C60.1746 25.5759 59.1842 26.834 58.5953 28.6541C58.06 30.4742 57.7923 33.0974 57.7923 36.5235C57.7923 40.1638 58.1403 42.9743 58.8362 44.955C59.5322 46.9357 60.6831 48.3008 62.2891 49.0503C63.8951 49.7462 66.0365 50.0942 68.7131 50.0942C70.6939 50.0942 72.969 50.0139 75.5386 49.8533C78.1618 49.6927 80.6778 49.4786 83.0868 49.2109L84.0504 55.394C82.605 55.9829 80.9455 56.4647 79.0718 56.8394C77.1982 57.2141 75.2442 57.4818 73.2099 57.6424C71.2292 57.8565 69.3555 57.9636 67.5889 57.9636C62.7709 57.9636 58.8898 57.2677 55.9454 55.8758C53.0546 54.4304 50.9401 52.182 49.6017 49.1306C48.3169 46.0792 47.6745 42.1445 47.6745 37.3265C47.6745 32.1338 48.3169 28.0385 49.6017 25.0406C50.9401 21.9892 53.0279 19.8211 55.8651 18.5363C58.7559 17.2515 62.4765 16.6091 67.0268 16.6091ZM102.5 17.5727L103.785 25.2815L104.668 26.4057V57H94.9518V17.5727H102.5ZM121.772 16.6091L120.808 25.6027H117.998C115.91 25.6027 113.796 25.9507 111.654 26.6466C109.513 27.3425 106.836 28.3864 103.624 29.7783L102.982 24.077C105.766 21.7215 108.603 19.9014 111.494 18.6166C114.384 17.2783 117.168 16.6091 119.845 16.6091H121.772ZM139.52 17.5727V57H129.884V17.5727H139.52ZM136.87 0.468793C138.797 0.468793 139.76 1.43239 139.76 3.35959V7.85639C139.76 9.7836 138.797 10.7472 136.87 10.7472H132.533C130.606 10.7472 129.643 9.7836 129.643 7.85639V3.35959C129.643 1.43239 130.606 0.468793 132.533 0.468793H136.87ZM163.904 1.4324C166.635 1.4324 169.392 1.45916 172.175 1.51269C175.013 1.51269 177.796 1.56623 180.527 1.6733C183.31 1.72683 185.88 1.88743 188.235 2.1551L187.754 9.5427H167.357C165.751 9.5427 164.547 9.91743 163.744 10.6669C162.941 11.4164 162.539 12.5941 162.539 14.2001V57H152.502V12.1926C152.502 8.81999 153.546 6.19686 155.634 4.3232C157.721 2.396 160.478 1.4324 163.904 1.4324ZM153.867 25.2012H184.702V32.5888H153.867V25.2012ZM238.971 1.59299L220.261 38.8522H210.946L192.156 1.59299H202.676L212.954 23.274C213.436 24.2911 213.837 25.3886 214.158 26.5663C214.533 27.744 214.908 28.8682 215.283 29.9389H215.925C216.246 28.8682 216.594 27.744 216.969 26.5663C217.344 25.3886 217.745 24.2911 218.173 23.274L228.452 1.59299H238.971ZM220.582 32.5085V57H210.545V32.5085H220.582ZM267.698 0.870293C271.874 0.870293 275.407 1.35209 278.298 2.31569C281.242 3.22576 283.598 4.77823 285.364 6.9731C287.185 9.11443 288.496 12.032 289.299 15.7258C290.102 19.3661 290.504 23.8896 290.504 29.2965C290.504 34.7034 290.102 39.2537 289.299 42.9475C288.496 46.5878 287.185 49.5053 285.364 51.7002C283.598 53.8415 281.242 55.394 278.298 56.3576C275.407 57.2677 271.874 57.7227 267.698 57.7227C263.683 57.7227 259.963 57.6424 256.537 57.4818C253.111 57.3747 249.872 57.2141 246.82 57L250.996 49.2912C253.137 49.3983 255.6 49.5053 258.384 49.6124C261.167 49.6659 264.272 49.6927 267.698 49.6927C270.803 49.6927 273.239 49.1038 275.006 47.9261C276.826 46.6948 278.111 44.607 278.86 41.6627C279.61 38.6648 279.984 34.5428 279.984 29.2965C279.984 24.0502 279.61 19.9549 278.86 17.0106C278.111 14.0127 276.826 11.8982 275.006 10.6669C273.239 9.43563 270.803 8.82 267.698 8.82C264.379 8.82 261.408 8.84676 258.785 8.9003C256.216 8.95383 253.699 8.98059 251.237 8.98059L246.82 1.59299C249.872 1.37886 253.084 1.21826 256.456 1.11119C259.883 0.950594 263.63 0.870293 267.698 0.870293ZM256.858 1.59299V57H246.82V1.59299H256.858ZM184.125 79.2141C185.152 79.2141 186.254 79.2443 187.432 79.3047C188.64 79.3651 189.818 79.4557 190.965 79.5765C192.113 79.6671 193.14 79.803 194.046 79.9842L193.683 83.5629C192.234 83.5327 190.784 83.5025 189.335 83.4723C187.915 83.4119 186.511 83.3817 185.122 83.3817C183.884 83.3817 182.902 83.4119 182.177 83.4723C181.483 83.5327 180.984 83.7139 180.682 84.0159C180.411 84.3179 180.275 84.8313 180.275 85.5561C180.275 86.4319 180.516 87.0208 180.999 87.3228C181.483 87.5946 182.268 87.8664 183.355 88.1382L189.425 89.5425C191.237 89.9955 192.581 90.6901 193.457 91.6263C194.333 92.5323 194.771 93.9366 194.771 95.8392C194.771 97.6814 194.423 99.0857 193.729 100.052C193.064 100.988 191.992 101.638 190.512 102C189.063 102.332 187.206 102.498 184.941 102.498C184.065 102.498 182.766 102.453 181.045 102.362C179.323 102.302 177.436 102.106 175.382 101.773L175.745 98.1948C176.349 98.1948 177.058 98.2099 177.874 98.2401C178.719 98.2703 179.61 98.2854 180.546 98.2854C181.513 98.2854 182.494 98.2854 183.491 98.2854C185.092 98.2854 186.315 98.2401 187.16 98.1495C188.036 98.0287 188.64 97.8022 188.972 97.47C189.304 97.1076 189.471 96.5942 189.471 95.9298C189.471 95.0842 189.184 94.5255 188.61 94.2537C188.066 93.9517 187.251 93.6648 186.164 93.393L180.229 91.9434C178.87 91.581 177.813 91.128 177.058 90.5844C176.303 90.0106 175.76 89.316 175.428 88.5006C175.095 87.655 174.929 86.6282 174.929 85.4202C174.929 83.7894 175.231 82.521 175.835 81.615C176.469 80.709 177.451 80.0748 178.78 79.7124C180.139 79.35 181.921 79.1839 184.125 79.2141ZM207.748 73.4157V95.2956C207.748 96.2318 207.945 96.8962 208.337 97.2888C208.76 97.6814 209.47 97.8777 210.466 97.8777H213.547L214.136 101.728C213.622 101.879 213.003 102.015 212.278 102.136C211.554 102.257 210.844 102.332 210.149 102.362C209.455 102.423 208.866 102.453 208.383 102.453C206.45 102.453 204.94 101.94 203.853 100.913C202.796 99.8558 202.267 98.3458 202.267 96.3828V73.4157H207.748ZM214.362 79.7577V83.5629H198.326V79.9842L202.675 79.7577H214.362ZM229.151 79.2141C231.869 79.2141 234.028 79.5916 235.629 80.3466C237.26 81.1016 238.422 82.3398 239.117 84.0612C239.842 85.7826 240.204 88.0627 240.204 90.9015C240.204 93.7403 239.842 96.0204 239.117 97.7418C238.422 99.433 237.26 100.671 235.629 101.456C234.028 102.211 231.869 102.589 229.151 102.589C226.493 102.589 224.349 102.211 222.718 101.456C221.118 100.671 219.955 99.433 219.23 97.7418C218.505 96.0204 218.143 93.7403 218.143 90.9015C218.143 88.0627 218.505 85.7826 219.23 84.0612C219.955 82.3398 221.118 81.1016 222.718 80.3466C224.349 79.5916 226.493 79.2141 229.151 79.2141ZM229.151 83.3817C227.822 83.3817 226.765 83.6082 225.98 84.0612C225.225 84.484 224.681 85.239 224.349 86.3262C224.017 87.4134 223.851 88.9385 223.851 90.9015C223.851 92.8645 224.017 94.3896 224.349 95.4768C224.681 96.564 225.225 97.319 225.98 97.7418C226.765 98.1646 227.822 98.376 229.151 98.376C230.51 98.376 231.582 98.1646 232.367 97.7418C233.152 97.319 233.696 96.564 233.998 95.4768C234.33 94.3896 234.496 92.8645 234.496 90.9015C234.496 88.9385 234.33 87.4134 233.998 86.3262C233.696 85.239 233.152 84.484 232.367 84.0612C231.582 83.6082 230.51 83.3817 229.151 83.3817ZM250.31 79.7577L251.034 84.1065L251.533 84.7407V102H246.051V79.7577H250.31ZM261.182 79.2141L260.638 84.2877H259.052C257.875 84.2877 256.682 84.484 255.474 84.8766C254.266 85.2692 252.756 85.8581 250.944 86.6433L250.581 83.427C252.152 82.0982 253.752 81.0714 255.383 80.3466C257.014 79.5916 258.584 79.2141 260.094 79.2141H261.182ZM275.055 79.2141C278.648 79.2141 281.231 79.8483 282.801 81.1167C284.371 82.3549 285.172 84.1971 285.202 86.6433C285.232 88.6667 284.749 90.2069 283.752 91.2639C282.786 92.2907 281.17 92.8041 278.905 92.8041H266.221V89.4066H277.41C278.437 89.4066 279.086 89.1348 279.358 88.5912C279.66 88.0476 279.811 87.3832 279.811 86.598C279.781 85.3598 279.419 84.4991 278.724 84.0159C278.06 83.5327 276.912 83.2911 275.281 83.2911C273.862 83.2911 272.759 83.4874 271.974 83.88C271.189 84.2726 270.63 84.9823 270.298 86.0091C269.996 87.0359 269.845 88.5157 269.845 90.4485C269.845 92.5021 270.041 94.0876 270.434 95.205C270.827 96.3224 271.476 97.0925 272.382 97.5153C273.288 97.9079 274.496 98.1042 276.006 98.1042C277.123 98.1042 278.407 98.0589 279.856 97.9683C281.336 97.8777 282.756 97.7569 284.115 97.6059L284.658 101.094C283.843 101.426 282.907 101.698 281.85 101.909C280.793 102.121 279.69 102.272 278.543 102.362C277.425 102.483 276.368 102.544 275.372 102.544C272.654 102.544 270.464 102.151 268.803 101.366C267.172 100.55 265.98 99.282 265.225 97.5606C264.5 95.8392 264.137 93.6195 264.137 90.9015C264.137 87.9721 264.5 85.6618 265.225 83.9706C265.98 82.2492 267.157 81.0261 268.758 80.3013C270.389 79.5765 272.488 79.2141 275.055 79.2141Z" fill="#EEEEEE"/>
<path d="M161.163 88.2589C162.835 88.2589 163.971 88.5932 164.573 89.2619C165.242 89.8637 165.576 90.967 165.576 92.5718V97.5868C165.576 99.2585 165.242 100.429 164.573 101.097C163.971 101.699 162.835 102 161.163 102H157.853C156.248 102 155.112 101.699 154.443 101.097C153.774 100.429 153.44 99.2585 153.44 97.5868V92.5718C153.44 90.967 153.774 89.8637 154.443 89.2619C155.112 88.5932 156.248 88.2589 157.853 88.2589H161.163Z" fill="#05FF00"/>
</svg>
