<?xml version="1.0" standalone="no"?>
<!DOCTYPE svg PUBLIC "-//W3C//DTD SVG 20010904//EN"
 "http://www.w3.org/TR/2001/REC-SVG-20010904/DTD/svg10.dtd">
<svg version="1.0" xmlns="http://www.w3.org/2000/svg"
 width="256.000000pt" height="256.000000pt" viewBox="0 0 256.000000 256.000000"
 preserveAspectRatio="xMidYMid meet">

<g transform="translate(0.000000,256.000000) scale(0.100000,-0.100000)"
fill="#000000" stroke="none">
<path d="M400 2307 c-49 -16 -133 -102 -148 -153 -17 -57 -17 -571 0 -628 16
-55 99 -138 154 -154 28 -8 130 -12 316 -12 323 0 343 4 411 80 24 26 49 66
55 88 17 54 17 570 0 624 -6 22 -31 62 -55 88 -69 77 -88 80 -417 79 -174 -1
-294 -5 -316 -12z m615 -172 l25 -24 0 -271 0 -271 -25 -24 -24 -25 -271 0
-271 0 -24 25 -25 24 0 271 0 271 25 24 24 25 271 0 271 0 24 -25z"/>
<path d="M1520 2307 c-49 -16 -133 -102 -148 -153 -17 -57 -17 -571 0 -628 16
-55 99 -138 154 -154 28 -8 130 -12 316 -12 323 0 343 4 411 80 24 26 49 66
55 88 17 54 17 570 0 624 -6 22 -31 62 -55 88 -69 77 -88 80 -417 79 -174 -1
-294 -5 -316 -12z m615 -172 l25 -24 0 -271 0 -271 -25 -24 -24 -25 -271 0
-271 0 -24 25 -25 24 0 271 0 271 25 24 24 25 271 0 271 0 24 -25z"/>
<path d="M400 1187 c-49 -16 -133 -102 -148 -153 -17 -57 -17 -571 0 -628 16
-55 99 -138 154 -154 28 -8 130 -12 316 -12 323 0 343 4 411 80 24 26 49 66
55 88 17 54 17 570 0 624 -6 22 -31 62 -55 88 -69 77 -88 80 -417 79 -174 -1
-294 -5 -316 -12z m615 -172 l25 -24 0 -271 0 -271 -25 -24 -24 -25 -271 0
-271 0 -24 25 -25 24 0 271 0 271 25 24 24 25 271 0 271 0 24 -25z"/>
<path d="M1520 1187 c-49 -16 -133 -102 -148 -153 -17 -57 -17 -571 0 -628 16
-55 99 -138 154 -154 28 -8 130 -12 316 -12 323 0 343 4 411 80 24 26 49 66
55 88 17 54 17 570 0 624 -6 22 -31 62 -55 88 -69 77 -88 80 -417 79 -174 -1
-294 -5 -316 -12z m615 -172 l25 -24 0 -271 0 -271 -25 -24 -24 -25 -271 0
-271 0 -24 25 -25 24 0 271 0 271 25 24 24 25 271 0 271 0 24 -25z"/>
</g>
</svg>
