<?xml version="1.0" standalone="no"?>
<!DOCTYPE svg PUBLIC "-//W3C//DTD SVG 20010904//EN"
 "http://www.w3.org/TR/2001/REC-SVG-20010904/DTD/svg10.dtd">
<svg version="1.0" xmlns="http://www.w3.org/2000/svg"
 width="256.000000" height="256.000000" viewBox="0 0 256.000000 256.000000"
 preserveAspectRatio="xMidYMid meet">

<g transform="translate(0.000000,256.000000) scale(0.100000,-0.100000)"
fill="#000000" stroke="none">
<path d="M1120 2281 c-146 -46 -276 -155 -339 -283 -33 -67 -61 -177 -61 -244
0 -88 50 -238 146 -441 30 -62 54 -115 54 -118 0 -3 -79 -5 -176 -5 l-176 0
-32 -32 c-27 -28 -51 -88 -154 -388 -67 -196 -122 -371 -122 -390 0 -40 28
-88 62 -106 34 -19 1882 -19 1916 0 34 18 62 66 62 106 0 33 -223 688 -255
750 -29 56 -43 60 -237 60 -98 0 -178 2 -178 5 0 3 18 42 41 86 58 117 127
288 144 361 40 171 -9 350 -134 481 -115 122 -243 177 -408 176 -65 0 -117 -6
-153 -18z m307 -86 c120 -36 245 -157 293 -282 34 -88 33 -213 -2 -315 -38
-107 -104 -251 -183 -398 -79 -147 -247 -430 -255 -430 -18 0 -281 467 -360
640 -124 271 -137 390 -59 548 100 205 341 306 566 237z m-387 -1197 c70 -126
232 -387 240 -387 6 0 192 303 258 421 l45 78 181 0 c99 0 187 -4 194 -8 9 -6
215 -575 256 -708 4 -14 1 -28 -9 -38 -15 -14 -104 -16 -925 -16 -831 0 -910
1 -925 16 -9 10 -14 24 -12 33 27 96 249 706 259 713 7 4 95 8 194 8 l182 0
62 -112z"/>
<path d="M1179 2075 c-105 -34 -193 -123 -224 -228 -46 -155 23 -320 166 -397
60 -33 70 -35 159 -35 89 0 99 2 158 34 74 40 115 84 151 161 22 46 26 69 26
140 0 102 -28 173 -95 240 -84 84 -230 121 -341 85z m206 -95 c144 -61 193
-242 102 -377 -98 -144 -316 -144 -414 0 -147 216 72 480 312 377z"/>
</g>
</svg>
