<?xml version="1.0" standalone="no"?>
<!DOCTYPE svg PUBLIC "-//W3C//DTD SVG 20010904//EN"
 "http://www.w3.org/TR/2001/REC-SVG-20010904/DTD/svg10.dtd">
<svg version="1.0" xmlns="http://www.w3.org/2000/svg"
 width="256.000000" height="256.000000" viewBox="0 0 256.000000 256.000000"
 preserveAspectRatio="xMidYMid meet">

<g transform="translate(0.000000,256.000000) scale(0.100000,-0.100000)"
fill="#000000" stroke="none">
<path d="M1295 2315 c-272 -96 -417 -392 -325 -661 73 -212 271 -354 495 -354
246 0 459 174 510 417 18 86 18 121 0 208 -41 195 -200 361 -385 404 -84 20
-218 13 -295 -14z m284 -104 c121 -37 204 -110 258 -227 25 -53 28 -70 28
-164 0 -93 -3 -111 -27 -163 -35 -74 -119 -162 -189 -197 -206 -105 -455 -19
-553 189 -41 88 -48 216 -17 303 73 209 293 323 500 259z"/>
<path d="M1417 2053 c-33 -38 -22 -94 24 -113 27 -11 33 -11 57 7 33 25 41 76
16 104 -22 24 -76 25 -97 2z"/>
<path d="M1432 1884 c-21 -14 -22 -21 -22 -169 0 -166 6 -185 54 -185 48 0 56
24 56 181 0 101 -4 150 -12 161 -20 25 -51 30 -76 12z"/>
<path d="M730 1275 c-30 -8 -124 -43 -209 -79 l-154 -65 -23 24 c-13 14 -29
25 -36 25 -26 0 -273 -101 -291 -119 -18 -18 -18 -30 23 -412 45 -416 48 -429
97 -429 31 0 451 160 470 179 10 10 14 27 10 51 -5 37 -5 37 48 54 113 35 219
16 400 -73 149 -74 187 -84 300 -85 97 0 166 13 256 50 62 25 838 492 878 528
30 27 60 92 61 132 0 75 -60 163 -128 185 -71 23 -113 9 -376 -129 l-249 -130
-29 21 c-24 18 -49 22 -156 28 -228 12 -298 34 -405 128 -105 92 -212 132
-352 130 -44 0 -105 -7 -135 -14z m295 -126 c30 -11 81 -44 121 -79 123 -107
234 -144 469 -154 87 -4 101 -7 117 -26 23 -29 23 -55 -2 -80 -38 -38 -387
-23 -596 25 -77 18 -97 14 -113 -21 -13 -29 -2 -57 28 -73 28 -15 204 -48 328
-61 149 -16 347 -9 390 13 49 26 84 79 92 139 l6 53 245 127 c255 133 271 138
313 101 10 -10 17 -31 17 -54 0 -30 -6 -42 -27 -57 -103 -72 -808 -488 -861
-509 -91 -34 -216 -42 -298 -18 -32 9 -95 36 -139 60 -178 96 -358 125 -488
77 l-58 -21 -10 22 c-41 93 -155 403 -150 409 14 16 328 139 376 148 68 12
177 3 240 -21z m-644 -394 c59 -154 104 -283 101 -286 -15 -14 -284 -111 -290
-105 -7 8 -73 592 -69 615 2 14 112 61 136 58 9 -1 55 -107 122 -282z"/>
</g>
</svg>
