<?xml version="1.0" standalone="no"?>
<!DOCTYPE svg PUBLIC "-//W3C//DTD SVG 20010904//EN"
 "http://www.w3.org/TR/2001/REC-SVG-20010904/DTD/svg10.dtd">
<svg version="1.0" xmlns="http://www.w3.org/2000/svg"
 width="256.000000" height="256.000000" viewBox="0 0 256.000000 256.000000"
 preserveAspectRatio="xMidYMid meet">

<g transform="translate(0.000000,256.000000) scale(0.100000,-0.100000)"
fill="#000000" stroke="none">
<path d="M705 2007 c-58 -15 -138 -98 -153 -159 -15 -60 -16 -627 -1 -681 13
-47 63 -106 108 -124 19 -8 73 -17 122 -20 l87 -6 4 -173 3 -172 30 -43 c17
-23 48 -52 70 -63 39 -20 53 -21 470 -21 l430 0 43 25 c27 15 54 42 70 70 l27
45 3 550 c2 396 0 565 -8 604 -16 73 -91 151 -162 169 -61 16 -1084 15 -1143
-1z m114 -131 c49 -26 51 -42 51 -396 l0 -330 -75 0 c-67 0 -79 3 -100 25
l-25 24 0 312 0 311 34 34 c37 37 70 43 115 20z m1033 -15 l33 -29 3 -558 2
-557 -21 -24 -22 -23 -402 0 c-331 0 -405 2 -421 14 -18 14 -19 35 -24 593 -3
318 -9 586 -14 596 -8 16 15 17 413 17 l421 0 32 -29z"/>
<path d="M1300 1740 c-28 -28 -25 -64 6 -89 25 -19 40 -21 203 -21 201 0 221
6 221 64 0 62 -14 66 -223 66 -174 0 -188 -1 -207 -20z"/>
<path d="M1186 1495 c-32 -16 -43 -58 -22 -89 l16 -26 259 0 c237 0 259 1 274
18 35 38 12 101 -36 103 -123 6 -475 2 -491 -6z"/>
<path d="M1172 1227 c-28 -30 -28 -58 1 -85 23 -21 31 -22 268 -22 276 0 289
3 289 65 0 62 -13 65 -290 65 -245 0 -247 0 -268 -23z"/>
</g>
</svg>
