<?xml version="1.0" standalone="no"?>
<!DOCTYPE svg PUBLIC "-//W3C//DTD SVG 20010904//EN"
 "http://www.w3.org/TR/2001/REC-SVG-20010904/DTD/svg10.dtd">
<svg version="1.0" xmlns="http://www.w3.org/2000/svg"
 width="256.000000" height="256.000000" viewBox="0 0 256.000000 256.000000"
 preserveAspectRatio="xMidYMid meet">

<g transform="translate(0.000000,256.000000) scale(0.100000,-0.100000)"
fill="#000000" stroke="none">
<path d="M853 2548 c-6 -7 -27 -45 -46 -85 l-36 -71 -126 -42 c-218 -73 -247
-110 -296 -382 -23 -132 -29 -181 -20 -191 6 -8 65 -29 132 -47 67 -19 123
-40 126 -47 3 -7 -12 -130 -32 -274 -32 -226 -35 -263 -23 -275 21 -21 228
-70 353 -84 140 -15 214 -11 229 13 21 32 -4 52 -70 54 -104 5 -246 23 -341
45 -83 19 -93 24 -93 43 0 28 63 466 91 638 23 134 20 157 -21 157 -28 0 -37
-19 -54 -125 -10 -55 -18 -101 -19 -102 -5 -4 -182 49 -191 57 -10 10 28 235
50 297 24 67 76 105 198 146 96 32 108 34 113 19 28 -88 110 -212 140 -212 9
0 49 25 89 55 l73 55 73 -60 c40 -33 79 -60 87 -60 26 0 89 80 123 156 18 41
37 74 43 74 5 0 52 -14 104 -31 108 -36 162 -77 185 -142 22 -62 60 -287 50
-297 -9 -8 -186 -61 -191 -57 -1 1 -10 49 -20 106 -19 111 -35 137 -70 115
-22 -15 -21 -42 10 -239 l23 -150 -110 -5 c-63 -3 -121 -11 -133 -18 -34 -19
-53 -65 -53 -129 0 -121 81 -1388 90 -1398 20 -25 116 -50 190 -50 74 0 170
25 190 50 5 6 17 98 27 203 10 106 20 192 23 192 3 0 14 -86 23 -192 10 -106
23 -198 28 -205 21 -24 113 -48 189 -48 76 0 168 24 189 48 9 12 91 1266 91
1400 0 32 -7 71 -15 87 -30 57 -46 60 -359 60 l-286 0 -6 24 c-15 62 -8 68
123 106 67 19 128 40 134 47 9 9 4 54 -20 190 -49 273 -78 310 -295 383 l-126
42 -42 81 -43 82 -221 3 c-169 2 -224 -1 -231 -10z m367 -74 c0 -30 -116 -174
-140 -174 -24 0 -140 144 -140 174 0 3 63 6 140 6 77 0 140 -3 140 -6z m-237
-201 c17 -18 29 -34 26 -36 -31 -25 -77 -57 -82 -57 -10 0 -55 81 -71 128 -14
38 -14 46 1 77 l16 34 40 -57 c21 -31 53 -72 70 -89z m323 24 c-15 -51 -60
-127 -74 -127 -4 1 -25 16 -46 34 l-40 34 47 52 c26 29 57 70 69 91 l22 40 19
-36 c17 -34 17 -40 3 -88z m94 -817 l0 -40 -60 0 c-59 0 -60 0 -60 28 0 40 17
52 72 52 l48 0 0 -40z m120 0 c0 -33 -3 -40 -20 -40 -17 0 -20 7 -20 40 0 33
3 40 20 40 17 0 20 -7 20 -40z m320 0 l0 -40 -120 0 -120 0 0 40 0 40 120 0
120 0 0 -40z m120 0 c0 -33 -3 -40 -20 -40 -17 0 -20 7 -20 40 0 33 3 40 20
40 17 0 20 -7 20 -40z m188 28 c7 -7 12 -25 12 -40 0 -28 -1 -28 -60 -28 l-60
0 0 40 0 40 48 0 c26 0 53 -5 60 -12z m-748 -164 c0 -39 -26 -99 -61 -137 -20
-23 -39 -40 -42 -37 -2 3 -7 47 -9 98 l-5 92 58 0 c48 0 59 -3 59 -16z m202
-109 l3 -125 33 -32 c28 -28 39 -33 82 -33 43 0 54 5 82 33 l33 32 3 125 4
125 58 0 58 0 7 -47 c4 -26 18 -69 31 -96 26 -51 93 -122 125 -132 10 -4 19
-14 19 -23 -1 -9 -14 -226 -29 -481 -26 -409 -31 -466 -46 -477 -40 -29 -170
-29 -210 0 -15 11 -23 70 -57 422 -22 224 -44 414 -50 421 -13 17 -42 17 -56
1 -6 -7 -28 -199 -50 -426 -22 -227 -42 -415 -44 -418 -13 -13 -119 -26 -159
-20 -85 13 -77 -24 -110 502 -16 258 -29 474 -29 481 0 6 9 14 19 18 32 10 99
81 125 132 13 27 27 70 31 96 l7 47 58 0 58 0 4 -125z m156 14 c-3 -94 -6
-114 -20 -123 -13 -8 -23 -8 -35 0 -15 9 -18 29 -21 123 l-3 111 41 0 41 0 -3
-111z m394 19 c-2 -51 -7 -95 -9 -98 -10 -10 -80 80 -91 118 -21 69 -19 72 47
72 l58 0 -5 -92z"/>
</g>
</svg>
