<?xml version="1.0" standalone="no"?>
<!DOCTYPE svg PUBLIC "-//W3C//DTD SVG 20010904//EN"
 "http://www.w3.org/TR/2001/REC-SVG-20010904/DTD/svg10.dtd">
<svg version="1.0" xmlns="http://www.w3.org/2000/svg"
 width="256.000000" height="256.000000" viewBox="0 0 256.000000 256.000000"
 preserveAspectRatio="xMidYMid meet">

<g transform="translate(0.000000,256.000000) scale(0.100000,-0.100000)"
fill="#000000" stroke="none">
<path d="M1567 2319 c-65 -15 -79 -27 -75 -62 2 -22 -1 -32 -12 -34 -322 -48
-710 -149 -978 -254 -85 -34 -92 -35 -92 -11 0 32 -18 40 -66 31 -63 -12 -123
-40 -166 -78 -31 -27 -35 -35 -29 -59 6 -22 2 -32 -19 -52 -25 -23 -28 -35
-41 -165 -20 -194 -17 -519 5 -665 24 -161 62 -317 90 -365 17 -29 25 -61 28
-115 6 -90 30 -143 89 -194 81 -69 205 -86 254 -35 13 14 30 53 39 94 35 142
127 331 184 375 23 19 34 21 82 15 30 -4 81 -7 113 -6 74 2 680 2 755 0 31 -1
83 2 115 6 l58 8 39 -42 c52 -55 134 -223 161 -333 30 -118 55 -143 142 -142
95 0 176 53 223 144 51 100 12 512 -76 808 -37 123 -134 378 -192 502 -54 116
-147 271 -242 404 -95 132 -130 170 -156 163 -16 -4 -22 1 -28 26 -5 21 -16
34 -33 38 -34 10 -127 9 -172 -2z m163 -44 c7 -9 11 -17 9 -19 -8 -7 -192 -25
-200 -20 -5 3 -9 11 -9 19 0 30 177 48 200 20z m85 -63 c35 -24 225 -307 300
-446 38 -70 44 -88 29 -82 -66 27 -193 40 -222 22 -7 -4 -12 -21 -12 -37 0
-24 -4 -29 -17 -25 -10 3 -55 8 -101 12 -79 6 -87 9 -165 61 -153 102 -156
109 -164 313 l-6 148 54 7 c30 4 106 13 169 20 63 7 117 13 120 14 3 0 10 -3
15 -7z m-395 -134 c1 -150 14 -233 44 -278 l26 -40 -45 -11 c-25 -6 -63 -24
-84 -39 -36 -27 -46 -29 -177 -34 l-139 -6 90 26 c216 61 229 66 247 104 15
32 15 51 4 198 -6 90 -9 165 -7 168 2 2 13 4 23 4 16 0 18 -10 18 -92z m-76
-55 c4 -71 9 -142 12 -158 10 -60 -7 -69 -291 -145 -143 -38 -263 -70 -267
-70 -5 0 -8 11 -8 25 0 26 -4 29 -53 39 -23 5 -36 24 -87 126 l-60 119 57 21
c163 61 656 186 684 173 4 -1 9 -60 13 -130z m-970 -88 c4 -12 -7 -21 -39 -35
-162 -71 -145 -66 -145 -42 0 20 49 55 105 76 53 19 72 19 79 1z m236 -105
c52 -105 57 -129 27 -117 -18 7 -120 204 -112 217 15 25 35 2 85 -100z m-75
-27 c51 -96 53 -103 35 -113 -10 -5 -27 -10 -37 -10 -49 0 -89 -21 -108 -56
-18 -34 -18 -37 -2 -45 9 -6 17 -19 17 -29 0 -21 -15 -27 -25 -10 -12 19 -35
10 -50 -20 -19 -36 -19 -67 0 -103 13 -26 12 -34 -11 -95 -29 -77 -87 -296
-105 -392 -6 -36 -17 -117 -24 -180 -11 -107 -13 -113 -25 -85 -20 48 -68 300
-79 419 -6 60 -11 164 -11 230 0 151 28 437 44 454 17 18 298 142 314 139 7
-1 37 -48 67 -104z m1056 -109 c17 -8 28 -18 25 -21 -2 -3 -55 -2 -116 2 -61
4 -109 9 -106 12 2 3 22 11 43 19 44 16 109 12 154 -12z m-852 -23 c31 -20 2
-37 -81 -49 -105 -15 -108 -15 -108 2 0 21 76 47 160 54 8 1 21 -2 29 -7z
m1359 -13 c40 -10 63 -31 49 -44 -11 -12 -189 20 -195 34 -12 33 43 37 146 10z
m-1588 -37 c0 -19 -25 -35 -40 -26 -13 8 -1 33 18 38 10 3 18 5 20 6 1 0 2 -8
2 -18z m1078 10 c73 -5 136 -12 139 -15 9 -9 -48 -299 -63 -323 -14 -23 -14
-23 -307 -23 -219 0 -297 3 -310 13 -12 8 -27 61 -48 170 -18 86 -29 160 -26
164 18 18 412 27 615 14z m-629 -186 c28 -148 33 -162 61 -187 l30 -28 295 0
c199 0 302 4 319 11 36 17 50 55 81 219 15 80 31 148 34 151 3 4 13 4 22 0 14
-5 13 -19 -12 -126 -31 -133 -36 -222 -15 -263 l14 -27 -62 -1 c-140 -1 -232
-102 -224 -246 3 -56 9 -75 36 -113 l32 -45 -222 0 -221 0 21 23 c51 54 68
169 36 245 -34 82 -114 135 -207 136 -53 1 -57 3 -52 21 26 83 25 99 -8 247
-30 129 -32 148 -18 151 9 2 19 1 23 -2 3 -3 20 -78 37 -166z m-82 14 c42
-184 38 -209 -49 -305 -149 -165 -214 -287 -317 -595 -57 -173 -77 -221 -101
-244 l-29 -28 -34 23 c-93 64 -110 142 -87 395 21 232 69 432 162 683 54 143
64 163 86 169 40 10 316 51 326 49 6 -1 25 -67 43 -147z m1178 120 c72 -11
137 -22 146 -25 10 -3 32 -45 54 -102 127 -329 179 -563 192 -859 6 -140 6
-142 -21 -198 -19 -37 -41 -65 -67 -82 l-40 -26 -29 28 c-23 22 -44 71 -100
241 -103 307 -171 439 -307 586 -91 99 -99 136 -63 301 39 172 36 166 73 161
17 -2 91 -13 162 -25z m-1642 -109 c-3 -11 -9 -20 -14 -20 -10 0 -12 33 -3 43
12 12 22 -3 17 -23z m632 -329 c76 -35 115 -95 115 -176 0 -81 -39 -141 -115
-176 -51 -24 -99 -24 -150 0 -76 35 -115 95 -115 176 0 24 5 56 11 72 24 64
109 123 179 123 19 0 53 -9 75 -19z m760 0 c76 -35 115 -95 115 -176 0 -81
-39 -141 -115 -176 -51 -24 -99 -24 -150 0 -76 35 -115 95 -115 176 0 24 5 56
11 72 24 64 109 123 179 123 19 0 53 -9 75 -19z m-1026 -308 l30 -42 -35 -17
c-19 -9 -43 -28 -53 -43 -67 -95 -130 -232 -160 -348 -23 -89 -42 -113 -88
-113 -39 0 -39 2 -13 38 11 15 53 127 94 248 67 200 119 324 165 393 l16 25 7
-49 c4 -29 19 -66 37 -92z m1255 17 c24 -47 76 -183 116 -303 45 -138 81 -229
97 -247 l25 -30 -36 0 c-45 0 -71 25 -86 82 -50 197 -155 395 -227 425 l-35
14 20 22 c28 30 52 89 52 129 1 32 1 32 16 13 9 -11 35 -58 58 -105z"/>
<path d="M1507 2143 c-4 -3 -7 -30 -7 -60 0 -46 3 -53 20 -53 17 0 20 7 20 49
0 46 -18 80 -33 64z"/>
<path d="M1620 2100 c-29 -29 -26 -74 6 -99 35 -27 59 -26 89 4 30 30 31 54 4
89 -25 32 -70 35 -99 6z m76 -35 c7 -18 -13 -45 -33 -45 -17 0 -27 24 -19 45
7 20 45 19 52 0z"/>
<path d="M1792 1997 c-12 -13 -22 -33 -22 -46 0 -27 42 -71 68 -71 33 0 72 38
72 71 0 62 -75 92 -118 46z m76 -43 c4 -27 -26 -40 -46 -20 -21 20 -8 48 20
44 14 -2 24 -11 26 -24z"/>
<path d="M1526 1929 c-33 -26 -34 -68 -3 -97 30 -28 68 -28 95 1 29 30 28 62
-3 92 -30 30 -54 31 -89 4z m62 -28 c23 -14 10 -46 -18 -46 -16 0 -26 6 -28
19 -3 16 12 36 28 36 3 0 11 -4 18 -9z"/>
<path d="M1691 1824 c-27 -35 -26 -59 4 -89 30 -31 65 -32 93 -2 28 30 28 68
-1 95 -32 30 -71 28 -96 -4z m77 -42 c4 -28 -24 -40 -45 -19 -14 13 -14 19 -3
32 18 22 44 15 48 -13z"/>
<path d="M435 1851 c-8 -14 36 -101 51 -101 25 0 25 22 -1 65 -26 45 -38 54
-50 36z"/>
<path d="M326 1753 l-48 -14 7 -37 c8 -43 19 -58 56 -78 26 -13 29 -12 49 14
17 21 21 36 17 66 -8 58 -22 67 -81 49z m40 -48 c4 -8 4 -22 0 -30 -7 -19 -36
-8 -36 14 0 32 26 43 36 16z"/>
<path d="M240 1606 c-19 -5 -38 -14 -41 -19 -6 -8 15 -94 25 -104 2 -3 23 1
45 7 30 8 48 20 61 43 11 18 20 35 20 39 0 4 -17 16 -37 26 -31 15 -45 17 -73
8z m54 -45 c8 -13 -21 -34 -39 -27 -25 9 -18 36 9 36 14 0 27 -4 30 -9z"/>
<path d="M1194 1179 c-10 -17 13 -36 27 -22 12 12 4 33 -11 33 -5 0 -12 -5
-16 -11z"/>
<path d="M1274 1179 c-10 -17 13 -36 27 -22 12 12 4 33 -11 33 -5 0 -12 -5
-16 -11z"/>
<path d="M1354 1179 c-10 -17 13 -36 27 -22 12 12 4 33 -11 33 -5 0 -12 -5
-16 -11z"/>
<path d="M1434 1179 c-10 -17 13 -36 27 -22 12 12 4 33 -11 33 -5 0 -12 -5
-16 -11z"/>
<path d="M1234 1119 c-10 -17 13 -36 27 -22 12 12 4 33 -11 33 -5 0 -12 -5
-16 -11z"/>
<path d="M1314 1119 c-10 -17 13 -36 27 -22 12 12 4 33 -11 33 -5 0 -12 -5
-16 -11z"/>
<path d="M1394 1119 c-10 -17 13 -36 27 -22 12 12 4 33 -11 33 -5 0 -12 -5
-16 -11z"/>
<path d="M1275 860 c-13 -21 11 -31 61 -28 36 2 49 7 49 18 0 19 -99 27 -110
10z"/>
<path d="M780 1543 c0 -58 31 -109 52 -87 12 11 -18 99 -35 102 -11 2 -17 -3
-17 -15z"/>
<path d="M607 1483 c-4 -3 -7 -24 -7 -45 0 -31 7 -46 31 -70 l30 -31 30 29
c24 23 29 36 29 76 l0 48 -53 0 c-30 0 -57 -3 -60 -7z m73 -56 c0 -30 -10 -40
-27 -26 -20 18 -16 49 7 49 14 0 20 -7 20 -23z"/>
<path d="M484 1356 c-3 -7 -4 -33 -2 -57 l3 -44 45 -3 c39 -3 49 1 75 28 l29
30 -29 30 c-23 24 -37 30 -72 30 -28 0 -46 -5 -49 -14z m91 -46 c0 -9 -11 -16
-27 -18 -23 -3 -28 1 -28 18 0 17 5 21 28 18 16 -2 27 -9 27 -18z"/>
<path d="M722 1347 c-28 -30 -28 -48 1 -75 17 -16 36 -22 70 -22 l47 0 0 60 0
60 -48 0 c-38 0 -53 -5 -70 -23z m78 -37 c0 -13 -7 -20 -19 -20 -22 0 -35 15
-26 30 12 19 45 11 45 -10z"/>
<path d="M630 1252 c-27 -27 -31 -38 -28 -74 l3 -43 58 -3 57 -3 0 49 c0 40
-5 53 -29 76 l-30 29 -31 -31z m50 -58 c0 -17 -5 -24 -20 -24 -22 0 -27 29 -8
48 16 16 28 6 28 -24z"/>
<path d="M1886 1551 c-4 -5 -9 -30 -12 -55 -6 -38 -4 -46 9 -46 21 0 24 6 32
63 6 39 5 47 -8 47 -9 0 -18 -4 -21 -9z"/>
<path d="M1981 1474 c-27 -35 -26 -59 4 -89 30 -31 65 -32 93 -2 28 30 28 68
-1 95 -32 30 -71 28 -96 -4z m77 -42 c4 -28 -24 -40 -45 -19 -21 21 -9 49 19
45 15 -2 24 -11 26 -26z"/>
<path d="M1841 1334 c-27 -35 -26 -59 4 -89 30 -31 65 -32 93 -2 28 30 28 68
-1 95 -32 30 -71 28 -96 -4z m77 -42 c4 -28 -24 -40 -45 -19 -21 21 -9 49 19
45 15 -2 24 -11 26 -26z"/>
<path d="M2121 1334 c-27 -35 -26 -59 4 -89 30 -31 65 -32 93 -2 28 30 28 68
-1 95 -32 30 -71 28 -96 -4z m77 -42 c4 -28 -24 -40 -45 -19 -21 21 -9 49 19
45 15 -2 24 -11 26 -26z"/>
<path d="M1981 1194 c-27 -35 -26 -59 4 -89 30 -31 65 -32 93 -2 28 30 28 68
-1 95 -32 30 -71 28 -96 -4z m77 -42 c4 -28 -24 -40 -45 -19 -21 21 -9 49 19
45 15 -2 24 -11 26 -26z"/>
<path d="M895 1080 c-146 -96 -13 -317 143 -236 89 46 94 185 8 237 -41 25
-112 25 -151 -1z m146 -49 c38 -38 39 -87 4 -129 -63 -75 -187 -21 -172 76 13
81 109 111 168 53z"/>
<path d="M1655 1080 c-146 -96 -13 -317 143 -236 89 46 94 185 8 237 -41 25
-112 25 -151 -1z m146 -49 c38 -38 39 -87 4 -129 -63 -75 -187 -21 -172 76 13
81 109 111 168 53z"/>
</g>
</svg>
