<?xml version="1.0" standalone="no"?>
<!DOCTYPE svg PUBLIC "-//W3C//DTD SVG 20010904//EN"
 "http://www.w3.org/TR/2001/REC-SVG-20010904/DTD/svg10.dtd">
<svg version="1.0" xmlns="http://www.w3.org/2000/svg"
 width="256.000000" height="256.000000" viewBox="0 0 256.000000 256.000000"
 preserveAspectRatio="xMidYMid meet">

<g transform="translate(0.000000,256.000000) scale(0.100000,-0.100000)"
fill="#000000" stroke="none">
<path d="M1280 2369 c-91 -16 -215 -64 -294 -113 -170 -106 -264 -224 -354
-447 -11 -27 -13 -28 -436 -75 -100 -12 -158 -87 -126 -163 16 -40 135 -153
190 -181 95 -49 118 -46 1049 131 l104 19 375 -100 c469 -126 437 -135 437
125 -1 165 -14 226 -81 360 -103 210 -296 367 -522 426 -89 23 -262 32 -342
18z m-300 -714 c179 -47 326 -88 328 -90 5 -5 -27 -11 -453 -90 -537 -100
-549 -99 -688 35 -56 55 -67 71 -67 98 0 34 36 81 62 83 7 0 117 13 243 29
127 15 235 27 240 25 6 -1 156 -42 335 -90z"/>
<path d="M2330 1255 c-16 -37 -28 -49 -65 -65 -25 -11 -45 -24 -45 -30 0 -6
20 -19 45 -30 37 -16 49 -28 65 -65 11 -25 24 -45 30 -45 6 0 19 20 30 45 16
37 28 49 65 65 25 11 45 24 45 30 0 6 -20 19 -45 30 -37 16 -49 28 -65 65 -11
25 -24 45 -30 45 -6 0 -19 -20 -30 -45z m54 -70 l25 -25 -24 -25 -25 -24 -25
25 -24 24 22 24 c12 13 23 24 24 25 1 1 13 -10 27 -24z"/>
<path d="M485 1045 c-22 -8 -59 -35 -83 -60 -32 -33 -51 -45 -73 -45 -53 0
-69 -29 -69 -123 0 -99 14 -127 64 -127 l33 0 12 -96 c13 -109 35 -159 86
-202 57 -46 93 -52 330 -52 237 0 273 6 330 52 52 44 75 96 87 205 10 82 14
97 35 110 37 24 108 28 152 9 l37 -17 12 -100 c13 -113 35 -163 87 -207 57
-46 93 -52 330 -52 237 0 273 6 330 52 51 43 73 93 86 202 l12 96 33 0 c50 0
64 28 64 127 0 94 -16 123 -69 123 -20 0 -41 13 -77 49 -31 31 -64 53 -89 60
-50 14 -527 15 -574 1 -45 -13 -94 -47 -117 -82 l-19 -28 -115 0 -115 0 -19
28 c-23 35 -72 69 -117 82 -56 16 -536 12 -584 -5z m578 -36 c20 -5 53 -26 72
-44 55 -56 59 -90 35 -286 -11 -94 -27 -183 -34 -197 -20 -38 -65 -77 -105
-91 -46 -15 -446 -15 -492 0 -40 14 -85 53 -105 91 -23 44 -57 361 -44 409 13
47 68 105 113 118 45 13 513 13 560 0z m1070 0 c49 -13 103 -69 117 -118 13
-48 -22 -366 -44 -410 -20 -37 -66 -76 -105 -90 -46 -15 -446 -15 -492 0 -40
14 -85 53 -105 91 -7 14 -23 103 -34 197 -17 134 -19 178 -10 210 13 49 67
107 113 120 45 13 513 13 560 0z m-1787 -194 c2 -83 2 -85 -22 -85 -23 0 -24
2 -24 78 0 82 3 92 29 92 13 0 16 -15 17 -85z m1070 10 l1 -75 -26 8 c-33 9
-109 9 -142 0 l-25 -7 0 74 1 75 95 0 95 0 1 -75z m922 -12 c3 -82 3 -83 -22
-83 -24 0 -24 1 -22 85 1 80 2 85 21 83 18 -3 20 -12 23 -85z"/>
<path d="M1905 930 c-3 -5 -2 -18 4 -27 15 -28 236 -243 250 -243 6 0 14 7 18
16 4 11 -31 53 -118 140 -119 119 -141 135 -154 114z"/>
<path d="M2023 924 c-7 -20 119 -148 139 -142 27 9 17 33 -44 94 -67 67 -84
75 -95 48z"/>
<path d="M510 200 c0 -16 7 -20 35 -20 28 0 35 4 35 20 0 16 -7 20 -35 20 -28
0 -35 -4 -35 -20z"/>
<path d="M630 200 c0 -19 7 -20 215 -20 208 0 215 1 215 20 0 19 -7 20 -215
20 -208 0 -215 -1 -215 -20z"/>
<path d="M1580 200 c0 -19 7 -20 215 -20 208 0 215 1 215 20 0 19 -7 20 -215
20 -208 0 -215 -1 -215 -20z"/>
<path d="M2060 200 c0 -16 7 -20 35 -20 28 0 35 4 35 20 0 16 -7 20 -35 20
-28 0 -35 -4 -35 -20z"/>
</g>
</svg>
